<svg width="390" height="475" viewBox="0 0 390 475" fill="none" xmlns="http://www.w3.org/2000/svg">
<rect width="390" height="666" rx="36" fill="white"/>
<rect x="0.5" y="0.5" width="389" height="665" rx="35.5" stroke="black" stroke-opacity="0.1"/>
<path d="M25.108 18.4673C25.7439 18.4673 26.3556 18.574 26.9432 18.7873C27.5349 19.0006 28.0621 19.3407 28.5249 19.8075C28.9918 20.2744 29.36 20.8942 29.6297 21.6669C29.9033 22.4356 30.0422 23.3794 30.0462 24.4982C30.0462 25.5487 29.9275 26.4864 29.69 27.3114C29.4566 28.1325 29.1206 28.8307 28.6819 29.4062C28.2432 29.9818 27.7139 30.4205 27.0942 30.7223C26.4744 31.0201 25.7821 31.169 25.0175 31.169C24.1924 31.169 23.4639 31.0101 22.8321 30.6921C22.2002 30.3701 21.6911 29.9335 21.3047 29.3821C20.9224 28.8267 20.691 28.2029 20.6105 27.5107H23.1883C23.2889 27.9614 23.5002 28.3116 23.8221 28.5611C24.1441 28.8066 24.5425 28.9293 25.0175 28.9293C25.8224 28.9293 26.4341 28.5792 26.8527 27.8789C27.2712 27.1746 27.4825 26.2107 27.4866 24.9872H27.402C27.2169 25.3494 26.9674 25.6613 26.6535 25.9229C26.3395 26.1805 25.9793 26.3797 25.5728 26.5206C25.1704 26.6615 24.7418 26.7319 24.287 26.7319C23.5585 26.7319 22.9085 26.5608 22.3371 26.2188C21.7656 25.8767 21.3148 25.4058 20.9848 24.8061C20.6548 24.2064 20.4898 23.5223 20.4898 22.7536C20.4857 21.9245 20.6769 21.186 21.0633 20.538C21.4496 19.89 21.9889 19.3829 22.6812 19.0167C23.3774 18.6464 24.1864 18.4633 25.108 18.4673ZM25.1261 20.5199C24.7196 20.5199 24.3574 20.6165 24.0395 20.8097C23.7255 21.0028 23.476 21.2624 23.2909 21.5884C23.1098 21.9144 23.0212 22.2786 23.0253 22.6811C23.0253 23.0876 23.1138 23.4538 23.2909 23.7798C23.472 24.1018 23.7175 24.3594 24.0274 24.5526C24.3413 24.7417 24.6995 24.8363 25.102 24.8363C25.4038 24.8363 25.6835 24.7799 25.9411 24.6673C26.1987 24.5546 26.422 24.3996 26.6112 24.2024C26.8044 24.0012 26.9553 23.7698 27.064 23.5082C27.1726 23.2466 27.227 22.9689 27.227 22.6751C27.2229 22.2847 27.1304 21.9265 26.9493 21.6005C26.7682 21.2745 26.5186 21.0129 26.2007 20.8157C25.8827 20.6185 25.5246 20.5199 25.1261 20.5199ZM32.9766 29.5632C32.5782 29.5632 32.2361 29.4223 31.9504 29.1406C31.6686 28.8589 31.5278 28.5168 31.5278 28.1143C31.5278 27.7199 31.6686 27.3819 31.9504 27.1001C32.2361 26.8184 32.5782 26.6776 32.9766 26.6776C33.363 26.6776 33.7011 26.8184 33.9908 27.1001C34.2806 27.3819 34.4255 27.7199 34.4255 28.1143C34.4255 28.38 34.3571 28.6235 34.2202 28.8448C34.0874 29.0621 33.9124 29.2372 33.695 29.37C33.4777 29.4988 33.2382 29.5632 32.9766 29.5632ZM32.9766 23.4961C32.5782 23.4961 32.2361 23.3552 31.9504 23.0735C31.6686 22.7918 31.5278 22.4497 31.5278 22.0472C31.5278 21.6528 31.6686 21.3168 31.9504 21.0391C32.2361 20.7573 32.5782 20.6165 32.9766 20.6165C33.363 20.6165 33.7011 20.7573 33.9908 21.0391C34.2806 21.3168 34.4255 21.6528 34.4255 22.0472C34.4255 22.3169 34.3571 22.5624 34.2202 22.7837C34.0874 23.0011 33.9124 23.1741 33.695 23.3029C33.4777 23.4317 33.2382 23.4961 32.9766 23.4961ZM35.9176 28.8267V26.7681L41.0792 18.6364H42.8541V21.4858H41.8036L38.5497 26.6353V26.7319H45.8846V28.8267H35.9176ZM41.8519 31V28.1989L41.9002 27.2873V18.6364H44.3512V31H41.8519ZM52.4311 18.6364V31H49.8172V21.1175H49.7447L46.9134 22.8924V20.5742L49.9741 18.6364H52.4311Z" fill="black"/>
<path d="M313 20.5C313 19.9477 313.448 19.5 314 19.5H315C315.552 19.5 316 19.9477 316 20.5V28.5C316 29.0523 315.552 29.5 315 29.5H314C313.448 29.5 313 29.0523 313 28.5V20.5Z" fill="black"/>
<path d="M318 18.5C318 17.9477 318.448 17.5 319 17.5H320C320.552 17.5 321 17.9477 321 18.5V28.5C321 29.0523 320.552 29.5 320 29.5H319C318.448 29.5 318 29.0523 318 28.5V18.5Z" fill="black"/>
<path d="M308 24C308 23.4477 308.448 23 309 23H310C310.552 23 311 23.4477 311 24V28.5C311 29.0523 310.552 29.5 310 29.5H309C308.448 29.5 308 29.0523 308 28.5V24Z" fill="black"/>
<path d="M303 26.5C303 25.9477 303.448 25.5 304 25.5H305C305.552 25.5 306 25.9477 306 26.5V28.5C306 29.0523 305.552 29.5 305 29.5H304C303.448 29.5 303 29.0523 303 28.5V26.5Z" fill="black"/>
<path fill-rule="evenodd" clip-rule="evenodd" d="M335.5 20.1705C337.967 20.1706 340.339 21.1381 342.127 22.8728C342.261 23.0068 342.477 23.0051 342.609 22.869L343.896 21.5435C343.963 21.4745 344.001 21.381 344 21.2838C343.999 21.1865 343.961 21.0935 343.893 21.0253C339.201 16.4356 331.799 16.4356 327.107 21.0253C327.039 21.0935 327.001 21.1865 327 21.2837C326.999 21.3809 327.037 21.4744 327.104 21.5435L328.391 22.869C328.523 23.0053 328.739 23.007 328.873 22.8728C330.661 21.1379 333.034 20.1705 335.5 20.1705ZM335.536 24.1724C336.891 24.1723 338.198 24.6865 339.203 25.615C339.338 25.7468 339.552 25.7439 339.685 25.6086L340.97 24.283C341.038 24.2134 341.075 24.1191 341.074 24.0211C341.073 23.9231 341.034 23.8296 340.965 23.7615C337.906 20.8569 333.169 20.8569 330.109 23.7615C330.04 23.8296 330.001 23.9231 330 24.0212C329.999 24.1192 330.037 24.2135 330.105 24.283L331.39 25.6086C331.522 25.7439 331.736 25.7468 331.872 25.615C332.876 24.6871 334.182 24.173 335.536 24.1724ZM338.15 26.7597C338.152 26.858 338.114 26.9528 338.045 27.0216L335.822 29.3119C335.756 29.3792 335.668 29.4171 335.575 29.4171C335.482 29.4171 335.393 29.3792 335.328 29.3119L333.105 27.0216C333.036 26.9527 332.998 26.8579 333 26.7596C333.002 26.6614 333.044 26.5683 333.115 26.5024C334.535 25.2765 336.615 25.2765 338.035 26.5024C338.106 26.5683 338.148 26.6614 338.15 26.7597Z" fill="black"/>
<path opacity="0.35" d="M354 17.5275H371C372.918 17.5275 374.472 19.0822 374.472 21V26C374.472 27.9178 372.918 29.4725 371 29.4725H354C352.082 29.4725 350.528 27.9178 350.528 26V21C350.528 19.0822 352.082 17.5275 354 17.5275Z" stroke="black" stroke-width="1.05509"/>
<path opacity="0.4" d="M376 22V26.2203C376.849 25.8629 377.401 25.0314 377.401 24.1102C377.401 23.1889 376.849 22.3574 376 22" fill="black"/>
<path d="M352 21C352 19.8954 352.895 19 354 19H371C372.105 19 373 19.8954 373 21V26C373 27.1046 372.105 28 371 28H354C352.895 28 352 27.1046 352 26V21Z" fill="black"/>
<path d="M23.7244 69.224C22.4124 69.224 21.3084 68.936 20.4124 68.36C19.5271 67.784 18.8658 67.016 18.4284 66.056C17.9911 65.096 17.7724 64.04 17.7724 62.888C17.7724 61.736 17.9911 60.6853 18.4284 59.736C18.8658 58.776 19.5271 58.008 20.4124 57.432C21.3084 56.856 22.4124 56.568 23.7244 56.568C25.2604 56.568 26.5031 56.9307 27.4524 57.656C28.4018 58.3813 29.0044 59.368 29.2604 60.616H26.7324C26.5298 59.976 26.1724 59.4853 25.6604 59.144C25.1591 58.8027 24.5084 58.632 23.7084 58.632C22.9511 58.632 22.3058 58.8187 21.7724 59.192C21.2498 59.5547 20.8498 60.056 20.5724 60.696C20.3058 61.336 20.1724 62.0613 20.1724 62.872C20.1724 64.152 20.4924 65.1867 21.1324 65.976C21.7831 66.7653 22.7111 67.16 23.9164 67.16C24.8978 67.16 25.6658 66.9147 26.2204 66.424C26.7751 65.9333 27.0631 65.2133 27.0844 64.264H24.3804V62.36H29.3724V69H27.2764V67.624C26.8818 68.1893 26.3698 68.6 25.7404 68.856C25.1218 69.1013 24.4498 69.224 23.7244 69.224ZM33.8258 69.176C32.9511 69.176 32.2418 68.9467 31.6978 68.488C31.1538 68.0187 30.8818 67.368 30.8818 66.536C30.8818 65.64 31.2231 64.9573 31.9058 64.488C32.3965 64.1467 33.0951 63.8907 34.0018 63.72L36.6738 63.224C36.6525 62.6693 36.5085 62.248 36.2418 61.96C35.9751 61.672 35.5751 61.528 35.0418 61.528C34.6258 61.528 34.2578 61.6507 33.9378 61.896C33.6285 62.1413 33.4365 62.472 33.3618 62.888H31.2178C31.3671 61.896 31.8045 61.1387 32.5298 60.616C33.2551 60.0933 34.0978 59.832 35.0578 59.832C35.6018 59.832 36.1085 59.912 36.5778 60.072C37.0471 60.2213 37.4471 60.4453 37.7778 60.744C38.1085 61.032 38.3485 61.368 38.4978 61.752C38.6471 62.136 38.7378 62.52 38.7698 62.904C38.8125 63.288 38.8338 63.7627 38.8338 64.328V69H36.6738V67.784C36.4498 68.1787 36.1778 68.4773 35.8578 68.68C35.3565 69.0107 34.6791 69.176 33.8258 69.176ZM34.3538 67.48C34.7805 67.48 35.1645 67.3947 35.5058 67.224C35.9538 67 36.2631 66.7013 36.4338 66.328C36.6045 65.9547 36.7005 65.448 36.7218 64.808L34.5778 65.24C34.0018 65.3467 33.5858 65.5173 33.3298 65.752C33.1378 65.944 33.0418 66.1787 33.0418 66.456C33.0418 66.7867 33.1591 67.0427 33.3938 67.224C33.6391 67.3947 33.9591 67.48 34.3538 67.48ZM44.5749 69.176C43.4656 69.176 42.5056 68.9093 41.6949 68.376C40.8843 67.8427 40.4096 67.0427 40.2709 65.976H42.3989C42.5376 66.456 42.7936 66.8293 43.1669 67.096C43.5403 67.352 44.0043 67.48 44.5589 67.48C45.0283 67.48 45.4069 67.3893 45.6949 67.208C45.9936 67.0267 46.1429 66.7707 46.1429 66.44C46.1429 66.0773 45.9669 65.816 45.6149 65.656C45.2736 65.496 44.7403 65.3467 44.0149 65.208C43.3216 65.0693 42.7456 64.92 42.2869 64.76C41.8283 64.6 41.4389 64.344 41.1189 63.992C40.7989 63.6293 40.6389 63.1387 40.6389 62.52C40.6389 61.6347 40.9643 60.968 41.6149 60.52C42.2763 60.0613 43.1083 59.832 44.1109 59.832C45.1669 59.832 46.0416 60.0987 46.7349 60.632C47.4389 61.1653 47.8709 61.9173 48.0309 62.888H45.9989C45.8816 62.4187 45.6523 62.0773 45.3109 61.864C44.9696 61.64 44.5643 61.528 44.0949 61.528C43.6683 61.528 43.3269 61.6133 43.0709 61.784C42.8256 61.944 42.7029 62.1627 42.7029 62.44C42.7029 62.7707 42.8683 63.0053 43.1989 63.144C43.5296 63.2827 44.0523 63.4213 44.7669 63.56C45.5029 63.6987 46.1003 63.848 46.5589 64.008C47.0283 64.1573 47.4283 64.4133 47.7589 64.776C48.1003 65.1387 48.2709 65.64 48.2709 66.28C48.2709 67.1653 47.9403 67.8693 47.2789 68.392C46.6283 68.9147 45.7269 69.176 44.5749 69.176Z" fill="black"/>
<path d="M51.4577 69H49.0417L53.3457 56.792H55.8737L60.1777 69H57.7617L56.9297 66.488H52.2737L51.4577 69ZM54.6097 59.304L52.9297 64.472H56.2897L54.6097 59.304ZM65.9851 59.848C66.7637 59.848 67.4517 60.0453 68.0491 60.44C68.6464 60.8347 69.1104 61.3893 69.4411 62.104C69.7717 62.808 69.9371 63.6133 69.9371 64.52C69.9371 65.4267 69.7717 66.2373 69.4411 66.952C69.1104 67.656 68.6464 68.2053 68.0491 68.6C67.4517 68.9947 66.7637 69.192 65.9851 69.192C65.4304 69.192 64.9504 69.096 64.5451 68.904C64.1504 68.7013 63.7824 68.3547 63.4411 67.864V72.232H61.2811V60.024H63.4411V61.16C63.7931 60.6693 64.1664 60.328 64.5611 60.136C64.9557 59.944 65.4304 59.848 65.9851 59.848ZM65.4891 61.704C64.8064 61.704 64.2464 61.9653 63.8091 62.488C63.3824 63.0107 63.1691 63.688 63.1691 64.52C63.1691 65.352 63.3824 66.0293 63.8091 66.552C64.2464 67.0747 64.8064 67.336 65.4891 67.336C66.1717 67.336 66.7211 67.0747 67.1371 66.552C67.5531 66.0187 67.7611 65.3413 67.7611 64.52C67.7611 63.6987 67.5531 63.0267 67.1371 62.504C66.7211 61.9707 66.1717 61.704 65.4891 61.704ZM76.2663 59.848C77.045 59.848 77.733 60.0453 78.3303 60.44C78.9276 60.8347 79.3916 61.3893 79.7223 62.104C80.053 62.808 80.2183 63.6133 80.2183 64.52C80.2183 65.4267 80.053 66.2373 79.7223 66.952C79.3916 67.656 78.9276 68.2053 78.3303 68.6C77.733 68.9947 77.045 69.192 76.2663 69.192C75.7116 69.192 75.2316 69.096 74.8263 68.904C74.4316 68.7013 74.0636 68.3547 73.7223 67.864V72.232H71.5623V60.024H73.7223V61.16C74.0743 60.6693 74.4476 60.328 74.8423 60.136C75.237 59.944 75.7116 59.848 76.2663 59.848ZM75.7703 61.704C75.0876 61.704 74.5276 61.9653 74.0903 62.488C73.6636 63.0107 73.4503 63.688 73.4503 64.52C73.4503 65.352 73.6636 66.0293 74.0903 66.552C74.5276 67.0747 75.0876 67.336 75.7703 67.336C76.453 67.336 77.0023 67.0747 77.4183 66.552C77.8343 66.0187 78.0423 65.3413 78.0423 64.52C78.0423 63.6987 77.8343 63.0267 77.4183 62.504C77.0023 61.9707 76.453 61.704 75.7703 61.704Z" fill="black" fill-opacity="0.5"/>
<line x1="196.5" y1="237" x2="196.5" y2="276" stroke="black" stroke-opacity="0.2"/>
<line x1="56.5" y1="237" x2="56.5" y2="276" stroke="black" stroke-opacity="0.2"/>
<line x1="56.5" y1="367" x2="56.5" y2="406" stroke="black" stroke-opacity="0.2"/>
<line x1="356.5" y1="237" x2="356.5" y2="276" stroke="black" stroke-opacity="0.2"/>
<line x1="196.5" y1="243" x2="196.5" y2="266" stroke="black" stroke-opacity="0.6" stroke-width="3"/>
<rect x="20" y="406" width="353" height="137" rx="16" fill="white"/>
<rect x="46.5" y="459.5" width="1" height="22" stroke="#0085FF" stroke-dasharray="2 2"/>
<rect x="32" y="418" width="32" height="32" rx="16" fill="black"/>
<path d="M54.8933 432.22L53.56 431.553C53.3133 431.433 53.0067 431.527 52.8867 431.773C52.76 432.027 52.86 432.327 53.1067 432.447L54.1667 432.973V436.167L51.6667 436.173V429.333C51.6667 428 50.7733 427.333 49.6667 427.333H44.3333C43.2267 427.333 42.3333 428 42.3333 429.333V440.167H41.3333C41.06 440.167 40.8333 440.393 40.8333 440.667C40.8333 440.94 41.06 441.167 41.3333 441.167H52.6667C52.94 441.167 53.1667 440.94 53.1667 440.667C53.1667 440.393 52.94 440.167 52.6667 440.167H51.6667V437.173L54.6667 437.167C54.9467 437.167 55.1667 436.94 55.1667 436.667V432.667C55.1667 432.48 55.06 432.307 54.8933 432.22ZM44 430.593C44 429.667 44.5667 429.333 45.26 429.333H48.7467C49.4333 429.333 50 429.667 50 430.593V431.413C50 432.333 49.4333 432.667 48.74 432.667H45.26C44.5667 432.667 44 432.333 44 431.407V430.593ZM44.3333 434.167H46.3333C46.6067 434.167 46.8333 434.393 46.8333 434.667C46.8333 434.94 46.6067 435.167 46.3333 435.167H44.3333C44.06 435.167 43.8333 434.94 43.8333 434.667C43.8333 434.393 44.06 434.167 44.3333 434.167Z" fill="white"/>
<path d="M75.1711 438.5H74.0671V429.344H79.9831V430.34H75.1711V433.412H79.4191V434.396H75.1711V438.5ZM82.1982 438.5H81.1782V431.864H82.1982V438.5ZM81.6942 430.724C81.4782 430.724 81.2942 430.652 81.1422 430.508C80.9902 430.356 80.9142 430.176 80.9142 429.968C80.9142 429.76 80.9902 429.584 81.1422 429.44C81.2942 429.296 81.4782 429.224 81.6942 429.224C81.9102 429.224 82.0942 429.296 82.2462 429.44C82.3982 429.584 82.4742 429.76 82.4742 429.968C82.4742 430.176 82.3982 430.356 82.2462 430.508C82.0942 430.652 81.9102 430.724 81.6942 430.724ZM85.4449 438.5C84.9089 438.5 84.5129 438.38 84.2569 438.14C84.0009 437.9 83.8729 437.464 83.8729 436.832V429.344H84.8929V436.676C84.8929 436.908 84.9089 437.088 84.9409 437.216C84.9729 437.336 85.0449 437.432 85.1569 437.504C85.2689 437.568 85.4449 437.6 85.6849 437.6H86.0089V438.5H85.4449ZM88.773 438.5C88.237 438.5 87.841 438.38 87.585 438.14C87.329 437.9 87.201 437.464 87.201 436.832V429.344H88.221V436.676C88.221 436.908 88.237 437.088 88.269 437.216C88.301 437.336 88.373 437.432 88.485 437.504C88.597 437.568 88.773 437.6 89.013 437.6H89.337V438.5H88.773ZM91.5732 438.5H90.5532V431.864H91.5732V438.5ZM91.0692 430.724C90.8532 430.724 90.6692 430.652 90.5172 430.508C90.3652 430.356 90.2892 430.176 90.2892 429.968C90.2892 429.76 90.3652 429.584 90.5172 429.44C90.6692 429.296 90.8532 429.224 91.0692 429.224C91.2852 429.224 91.4692 429.296 91.6212 429.44C91.7732 429.584 91.8492 429.76 91.8492 429.968C91.8492 430.176 91.7732 430.356 91.6212 430.508C91.4692 430.652 91.2852 430.724 91.0692 430.724ZM93.2719 438.5V431.864H94.2919V432.896C94.6199 432.472 94.9359 432.176 95.2399 432.008C95.5519 431.832 95.8919 431.744 96.2599 431.744C97.1959 431.744 97.8479 432.092 98.2159 432.788C98.3519 433.052 98.4359 433.324 98.4679 433.604C98.5079 433.876 98.5279 434.176 98.5279 434.504V438.5H97.5079V434.504C97.5079 433.8 97.3799 433.304 97.1239 433.016C96.8999 432.768 96.5599 432.644 96.1039 432.644C95.5999 432.644 95.1959 432.808 94.8919 433.136C94.6759 433.36 94.5199 433.668 94.4239 434.06C94.3359 434.452 94.2919 434.988 94.2919 435.668V438.5H93.2719ZM103.114 441.14C102.354 441.14 101.698 440.976 101.146 440.648C100.602 440.32 100.27 439.784 100.15 439.04H101.194C101.402 439.84 102.038 440.24 103.102 440.24C104.422 440.24 105.082 439.648 105.082 438.464V437.468C104.746 437.9 104.414 438.2 104.086 438.368C103.758 438.536 103.366 438.62 102.91 438.62C102.326 438.62 101.81 438.476 101.362 438.188C100.914 437.9 100.566 437.5 100.318 436.988C100.078 436.468 99.958 435.876 99.958 435.212C99.958 434.532 100.078 433.932 100.318 433.412C100.566 432.884 100.91 432.476 101.35 432.188C101.798 431.892 102.314 431.744 102.898 431.744C103.362 431.744 103.758 431.832 104.086 432.008C104.414 432.176 104.746 432.472 105.082 432.896V431.864H106.102V438.272C106.102 439.296 105.838 440.028 105.31 440.468C104.782 440.916 104.05 441.14 103.114 441.14ZM103.006 437.72C103.414 437.72 103.778 437.612 104.098 437.396C104.418 437.172 104.666 436.868 104.842 436.484C105.026 436.1 105.118 435.664 105.118 435.176C105.118 434.696 105.026 434.264 104.842 433.88C104.666 433.496 104.414 433.196 104.086 432.98C103.766 432.756 103.406 432.644 103.006 432.644C102.598 432.644 102.238 432.756 101.926 432.98C101.622 433.196 101.386 433.496 101.218 433.88C101.058 434.264 100.978 434.696 100.978 435.176C100.978 435.664 101.058 436.1 101.218 436.484C101.386 436.868 101.622 437.172 101.926 437.396C102.238 437.612 102.598 437.72 103.006 437.72ZM111.262 438.5V429.344H114.67C115.574 429.344 116.282 429.568 116.794 430.016C117.314 430.456 117.574 431.104 117.574 431.96C117.574 432.792 117.31 433.448 116.782 433.928C116.262 434.4 115.558 434.636 114.67 434.636H112.366V438.5H111.262ZM114.526 433.652C115.158 433.652 115.642 433.512 115.978 433.232C116.314 432.944 116.482 432.532 116.482 431.996C116.482 431.468 116.31 431.06 115.966 430.772C115.622 430.484 115.142 430.34 114.526 430.34H112.366V433.652H114.526ZM118.842 438.5V431.864H119.862V432.776C120.166 432.408 120.49 432.144 120.834 431.984C121.178 431.824 121.578 431.744 122.034 431.744H122.082V432.764H121.734C121.198 432.764 120.77 432.924 120.45 433.244C120.058 433.62 119.862 434.208 119.862 435.008V438.5H118.842ZM125.908 438.62C125.284 438.62 124.724 438.472 124.228 438.176C123.74 437.88 123.356 437.468 123.076 436.94C122.804 436.412 122.668 435.816 122.668 435.152C122.668 434.504 122.804 433.92 123.076 433.4C123.356 432.88 123.74 432.476 124.228 432.188C124.724 431.892 125.284 431.744 125.908 431.744C126.532 431.744 127.092 431.892 127.588 432.188C128.084 432.476 128.472 432.88 128.752 433.4C129.032 433.92 129.172 434.504 129.172 435.152C129.172 435.816 129.032 436.412 128.752 436.94C128.48 437.46 128.096 437.872 127.6 438.176C127.104 438.472 126.54 438.62 125.908 438.62ZM125.908 437.72C126.324 437.72 126.7 437.608 127.036 437.384C127.38 437.16 127.648 436.856 127.84 436.472C128.04 436.08 128.14 435.64 128.14 435.152C128.14 434.688 128.044 434.264 127.852 433.88C127.66 433.496 127.392 433.196 127.048 432.98C126.712 432.756 126.332 432.644 125.908 432.644C125.492 432.644 125.112 432.752 124.768 432.968C124.432 433.184 124.168 433.484 123.976 433.868C123.784 434.252 123.688 434.68 123.688 435.152C123.688 435.64 123.784 436.08 123.976 436.472C124.168 436.864 124.432 437.172 124.768 437.396C125.112 437.612 125.492 437.72 125.908 437.72ZM133.548 438.62C132.924 438.62 132.368 438.472 131.88 438.176C131.392 437.88 131.012 437.468 130.74 436.94C130.468 436.412 130.332 435.816 130.332 435.152C130.332 434.504 130.468 433.92 130.74 433.4C131.012 432.88 131.392 432.476 131.88 432.188C132.368 431.892 132.924 431.744 133.548 431.744C134.292 431.744 134.92 431.936 135.432 432.32C135.952 432.696 136.288 433.208 136.44 433.856H135.348C135.22 433.488 134.992 433.196 134.664 432.98C134.344 432.756 133.972 432.644 133.548 432.644C133.132 432.644 132.756 432.752 132.42 432.968C132.092 433.184 131.832 433.484 131.64 433.868C131.448 434.244 131.352 434.672 131.352 435.152C131.352 435.648 131.444 436.092 131.628 436.484C131.82 436.868 132.084 437.172 132.42 437.396C132.756 437.612 133.132 437.72 133.548 437.72C134.004 437.72 134.396 437.596 134.724 437.348C135.06 437.1 135.284 436.772 135.396 436.364H136.488C136.344 437.068 136.004 437.62 135.468 438.02C134.94 438.42 134.3 438.62 133.548 438.62ZM140.779 438.62C140.155 438.62 139.595 438.472 139.099 438.176C138.611 437.88 138.231 437.472 137.959 436.952C137.687 436.432 137.551 435.848 137.551 435.2C137.551 434.584 137.679 434.016 137.935 433.496C138.191 432.968 138.559 432.544 139.039 432.224C139.527 431.904 140.099 431.744 140.755 431.744C141.323 431.744 141.851 431.872 142.339 432.128C142.827 432.384 143.219 432.76 143.515 433.256C143.811 433.744 143.959 434.332 143.959 435.02V435.38H138.559C138.575 435.612 138.619 435.832 138.691 436.04C138.859 436.552 139.127 436.96 139.495 437.264C139.871 437.568 140.295 437.72 140.767 437.72C141.247 437.72 141.659 437.592 142.003 437.336C142.347 437.08 142.595 436.756 142.747 436.364H143.839C143.623 437.036 143.255 437.58 142.735 437.996C142.215 438.412 141.563 438.62 140.779 438.62ZM142.867 434.48C142.851 434.24 142.803 434.024 142.723 433.832C142.555 433.456 142.295 433.164 141.943 432.956C141.599 432.748 141.211 432.644 140.779 432.644C140.339 432.644 139.951 432.748 139.615 432.956C139.287 433.164 139.031 433.456 138.847 433.832C138.767 434.008 138.703 434.224 138.655 434.48H142.867ZM148.049 438.62C147.209 438.62 146.525 438.42 145.997 438.02C145.469 437.62 145.149 437.068 145.037 436.364H146.105C146.193 436.788 146.397 437.12 146.717 437.36C147.045 437.6 147.493 437.72 148.061 437.72C148.525 437.72 148.893 437.632 149.165 437.456C149.445 437.28 149.585 437.028 149.585 436.7C149.585 436.444 149.501 436.24 149.333 436.088C149.173 435.928 148.965 435.808 148.709 435.728C148.461 435.648 148.129 435.568 147.713 435.488C147.193 435.384 146.773 435.28 146.453 435.176C146.141 435.064 145.873 434.888 145.649 434.648C145.425 434.408 145.313 434.076 145.313 433.652C145.313 433.052 145.537 432.584 145.985 432.248C146.441 431.912 147.021 431.744 147.725 431.744C148.445 431.744 149.045 431.932 149.525 432.308C150.005 432.684 150.301 433.2 150.413 433.856H149.465C149.369 433.448 149.169 433.144 148.865 432.944C148.561 432.744 148.181 432.644 147.725 432.644C147.285 432.644 146.941 432.728 146.693 432.896C146.453 433.056 146.333 433.28 146.333 433.568C146.333 433.792 146.409 433.968 146.561 434.096C146.713 434.224 146.901 434.324 147.125 434.396C147.349 434.46 147.665 434.532 148.073 434.612C148.609 434.716 149.045 434.828 149.381 434.948C149.717 435.06 150.005 435.248 150.245 435.512C150.485 435.768 150.605 436.128 150.605 436.592C150.605 437.216 150.381 437.712 149.933 438.08C149.485 438.44 148.857 438.62 148.049 438.62ZM154.729 438.62C153.889 438.62 153.205 438.42 152.677 438.02C152.149 437.62 151.829 437.068 151.717 436.364H152.785C152.873 436.788 153.077 437.12 153.397 437.36C153.725 437.6 154.173 437.72 154.741 437.72C155.205 437.72 155.573 437.632 155.845 437.456C156.125 437.28 156.265 437.028 156.265 436.7C156.265 436.444 156.181 436.24 156.013 436.088C155.853 435.928 155.645 435.808 155.389 435.728C155.141 435.648 154.809 435.568 154.393 435.488C153.873 435.384 153.453 435.28 153.133 435.176C152.821 435.064 152.553 434.888 152.329 434.648C152.105 434.408 151.993 434.076 151.993 433.652C151.993 433.052 152.217 432.584 152.665 432.248C153.121 431.912 153.701 431.744 154.405 431.744C155.125 431.744 155.725 431.932 156.205 432.308C156.685 432.684 156.981 433.2 157.093 433.856H156.145C156.049 433.448 155.849 433.144 155.545 432.944C155.241 432.744 154.861 432.644 154.405 432.644C153.965 432.644 153.621 432.728 153.373 432.896C153.133 433.056 153.013 433.28 153.013 433.568C153.013 433.792 153.089 433.968 153.241 434.096C153.393 434.224 153.581 434.324 153.805 434.396C154.029 434.46 154.345 434.532 154.753 434.612C155.289 434.716 155.725 434.828 156.061 434.948C156.397 435.06 156.685 435.248 156.925 435.512C157.165 435.768 157.285 436.128 157.285 436.592C157.285 437.216 157.061 437.712 156.613 438.08C156.165 438.44 155.537 438.62 154.729 438.62Z" fill="black"/>
<rect x="167" y="422" width="70" height="24" rx="12" fill="#FAFAFA"/>
<path d="M179.052 438.1C178.279 438.1 177.629 437.923 177.102 437.57C176.576 437.21 176.182 436.733 175.922 436.14C175.662 435.547 175.532 434.893 175.532 434.18C175.532 433.467 175.662 432.813 175.922 432.22C176.182 431.627 176.576 431.153 177.102 430.8C177.629 430.447 178.279 430.27 179.052 430.27C179.606 430.27 180.099 430.363 180.532 430.55C180.966 430.737 181.316 430.997 181.582 431.33C181.849 431.663 182.022 432.047 182.102 432.48H181.102C181.009 432.053 180.776 431.717 180.402 431.47C180.036 431.217 179.579 431.09 179.032 431.09C178.479 431.09 178.009 431.223 177.622 431.49C177.236 431.75 176.942 432.113 176.742 432.58C176.549 433.047 176.452 433.58 176.452 434.18C176.452 434.787 176.549 435.323 176.742 435.79C176.942 436.257 177.236 436.623 177.622 436.89C178.009 437.15 178.479 437.28 179.032 437.28C179.592 437.28 180.052 437.147 180.412 436.88C180.779 436.607 181.009 436.21 181.102 435.69H182.102C181.982 436.437 181.652 437.027 181.112 437.46C180.579 437.887 179.892 438.1 179.052 438.1ZM185.693 438.1C185.173 438.1 184.706 437.977 184.293 437.73C183.886 437.483 183.566 437.14 183.333 436.7C183.106 436.26 182.993 435.763 182.993 435.21C182.993 434.67 183.106 434.183 183.333 433.75C183.566 433.317 183.886 432.98 184.293 432.74C184.706 432.493 185.173 432.37 185.693 432.37C186.213 432.37 186.679 432.493 187.093 432.74C187.506 432.98 187.829 433.317 188.063 433.75C188.296 434.183 188.413 434.67 188.413 435.21C188.413 435.763 188.296 436.26 188.063 436.7C187.836 437.133 187.516 437.477 187.103 437.73C186.689 437.977 186.219 438.1 185.693 438.1ZM185.693 437.35C186.039 437.35 186.353 437.257 186.633 437.07C186.919 436.883 187.143 436.63 187.303 436.31C187.469 435.983 187.553 435.617 187.553 435.21C187.553 434.823 187.473 434.47 187.313 434.15C187.153 433.83 186.929 433.58 186.643 433.4C186.363 433.213 186.046 433.12 185.693 433.12C185.346 433.12 185.029 433.21 184.743 433.39C184.463 433.57 184.243 433.82 184.083 434.14C183.923 434.46 183.843 434.817 183.843 435.21C183.843 435.617 183.923 435.983 184.083 436.31C184.243 436.637 184.463 436.893 184.743 437.08C185.029 437.26 185.346 437.35 185.693 437.35ZM189.609 438V432.47H190.459V433.33C190.733 432.977 190.996 432.73 191.249 432.59C191.509 432.443 191.793 432.37 192.099 432.37C192.473 432.37 192.799 432.457 193.079 432.63C193.366 432.803 193.549 433.057 193.629 433.39C193.976 432.71 194.559 432.37 195.379 432.37C195.993 432.37 196.453 432.547 196.759 432.9C197.066 433.247 197.219 433.747 197.219 434.4V438H196.369V434.6C196.369 434.127 196.269 433.763 196.069 433.51C195.876 433.25 195.603 433.12 195.249 433.12C194.883 433.12 194.583 433.243 194.349 433.49C194.163 433.69 194.029 433.95 193.949 434.27C193.876 434.59 193.839 435 193.839 435.5V438H192.989V434.6C192.989 434.133 192.886 433.77 192.679 433.51C192.479 433.25 192.206 433.12 191.859 433.12C191.493 433.12 191.193 433.253 190.959 433.52C190.786 433.713 190.659 433.963 190.579 434.27C190.499 434.577 190.459 434.987 190.459 435.5V438H189.609ZM201.274 432.37C201.76 432.37 202.19 432.49 202.564 432.73C202.937 432.97 203.224 433.307 203.424 433.74C203.63 434.173 203.734 434.67 203.734 435.23C203.734 435.79 203.63 436.29 203.424 436.73C203.224 437.163 202.937 437.5 202.564 437.74C202.197 437.98 201.767 438.1 201.274 438.1C200.894 438.1 200.567 438.03 200.294 437.89C200.02 437.75 199.744 437.5 199.464 437.14V440.1H198.614V432.47H199.464V433.33C199.737 432.977 200.01 432.73 200.284 432.59C200.557 432.443 200.887 432.37 201.274 432.37ZM201.194 433.12C200.854 433.12 200.55 433.21 200.284 433.39C200.017 433.57 199.807 433.823 199.654 434.15C199.507 434.47 199.434 434.83 199.434 435.23C199.434 435.637 199.507 436 199.654 436.32C199.807 436.64 200.017 436.893 200.284 437.08C200.55 437.26 200.854 437.35 201.194 437.35C201.534 437.35 201.83 437.26 202.084 437.08C202.344 436.893 202.54 436.64 202.674 436.32C202.814 436 202.884 435.637 202.884 435.23C202.884 434.83 202.814 434.47 202.674 434.15C202.54 433.83 202.344 433.58 202.084 433.4C201.83 433.213 201.534 433.12 201.194 433.12ZM206.231 438C205.785 438 205.455 437.9 205.241 437.7C205.028 437.5 204.921 437.137 204.921 436.61V430.37H205.771V436.48C205.771 436.673 205.785 436.823 205.811 436.93C205.838 437.03 205.898 437.11 205.991 437.17C206.085 437.223 206.231 437.25 206.431 437.25H206.701V438H206.231ZM209.911 438.1C209.391 438.1 208.925 437.977 208.511 437.73C208.105 437.483 207.788 437.143 207.561 436.71C207.335 436.277 207.221 435.79 207.221 435.25C207.221 434.737 207.328 434.263 207.541 433.83C207.755 433.39 208.061 433.037 208.461 432.77C208.868 432.503 209.345 432.37 209.891 432.37C210.365 432.37 210.805 432.477 211.211 432.69C211.618 432.903 211.945 433.217 212.191 433.63C212.438 434.037 212.561 434.527 212.561 435.1V435.4H208.061C208.075 435.593 208.111 435.777 208.171 435.95C208.311 436.377 208.535 436.717 208.841 436.97C209.155 437.223 209.508 437.35 209.901 437.35C210.301 437.35 210.645 437.243 210.931 437.03C211.218 436.817 211.425 436.547 211.551 436.22H212.461C212.281 436.78 211.975 437.233 211.541 437.58C211.108 437.927 210.565 438.1 209.911 438.1ZM211.651 434.65C211.638 434.45 211.598 434.27 211.531 434.11C211.391 433.797 211.175 433.553 210.881 433.38C210.595 433.207 210.271 433.12 209.911 433.12C209.545 433.12 209.221 433.207 208.941 433.38C208.668 433.553 208.455 433.797 208.301 434.11C208.235 434.257 208.181 434.437 208.141 434.65H211.651ZM215.354 438C214.907 438 214.577 437.9 214.364 437.7C214.15 437.5 214.044 437.137 214.044 436.61V433.22H213.154V432.47H214.044V430.37H214.894V432.47H216.134V433.22H214.894V436.44C214.894 436.633 214.907 436.787 214.934 436.9C214.96 437.007 215.02 437.093 215.114 437.16C215.207 437.22 215.354 437.25 215.554 437.25H216.124V438H215.354ZM219.511 438.1C218.991 438.1 218.524 437.977 218.111 437.73C217.704 437.483 217.387 437.143 217.161 436.71C216.934 436.277 216.821 435.79 216.821 435.25C216.821 434.737 216.927 434.263 217.141 433.83C217.354 433.39 217.661 433.037 218.061 432.77C218.467 432.503 218.944 432.37 219.491 432.37C219.964 432.37 220.404 432.477 220.811 432.69C221.217 432.903 221.544 433.217 221.791 433.63C222.037 434.037 222.161 434.527 222.161 435.1V435.4H217.661C217.674 435.593 217.711 435.777 217.771 435.95C217.911 436.377 218.134 436.717 218.441 436.97C218.754 437.223 219.107 437.35 219.501 437.35C219.901 437.35 220.244 437.243 220.531 437.03C220.817 436.817 221.024 436.547 221.151 436.22H222.061C221.881 436.78 221.574 437.233 221.141 437.58C220.707 437.927 220.164 438.1 219.511 438.1ZM221.251 434.65C221.237 434.45 221.197 434.27 221.131 434.11C220.991 433.797 220.774 433.553 220.481 433.38C220.194 433.207 219.871 433.12 219.511 433.12C219.144 433.12 218.821 433.207 218.541 433.38C218.267 433.553 218.054 433.797 217.901 434.11C217.834 434.257 217.781 434.437 217.741 434.65H221.251ZM225.59 438.1C225.103 438.1 224.673 437.98 224.3 437.74C223.927 437.5 223.637 437.163 223.43 436.73C223.23 436.297 223.13 435.8 223.13 435.24C223.13 434.68 223.23 434.183 223.43 433.75C223.637 433.31 223.923 432.97 224.29 432.73C224.663 432.49 225.097 432.37 225.59 432.37C225.97 432.37 226.297 432.44 226.57 432.58C226.843 432.72 227.12 432.97 227.4 433.33V430.37H228.25V438H227.4V437.14C227.127 437.493 226.853 437.743 226.58 437.89C226.307 438.03 225.977 438.1 225.59 438.1ZM225.67 437.35C226.01 437.35 226.313 437.26 226.58 437.08C226.847 436.9 227.053 436.65 227.2 436.33C227.353 436.003 227.43 435.64 227.43 435.24C227.43 434.833 227.353 434.47 227.2 434.15C227.053 433.83 226.847 433.58 226.58 433.4C226.313 433.213 226.01 433.12 225.67 433.12C225.33 433.12 225.03 433.213 224.77 433.4C224.517 433.58 224.32 433.83 224.18 434.15C224.047 434.47 223.98 434.833 223.98 435.24C223.98 435.64 224.047 436 224.18 436.32C224.32 436.64 224.517 436.893 224.77 437.08C225.03 437.26 225.33 437.35 225.67 437.35Z" fill="#52B922"/>
<rect x="17" y="98" width="360" height="146" rx="16" fill="#F4F4F4"/>
<path d="M54.56 128.24L53.2 126.66C52.94 126.36 52.73 125.8 52.73 125.4V123.7C52.73 122.64 51.86 121.77 50.8 121.77H49.1C48.71 121.77 48.14 121.56 47.84 121.3L46.26 119.94C45.57 119.35 44.44 119.35 43.74 119.94L42.17 121.31C41.87 121.56 41.3 121.77 40.91 121.77H39.18C38.12 121.77 37.25 122.64 37.25 123.7V125.41C37.25 125.8 37.04 126.36 36.79 126.66L35.44 128.25C34.86 128.94 34.86 130.06 35.44 130.75L36.79 132.34C37.04 132.64 37.25 133.2 37.25 133.59V135.3C37.25 136.36 38.12 137.23 39.18 137.23H40.91C41.3 137.23 41.87 137.44 42.17 137.7L43.75 139.06C44.44 139.65 45.57 139.65 46.27 139.06L47.85 137.7C48.15 137.44 48.71 137.23 49.11 137.23H50.81C51.87 137.23 52.74 136.36 52.74 135.3V133.6C52.74 133.21 52.95 132.64 53.21 132.34L54.57 130.76C55.15 130.07 55.15 128.93 54.56 128.24ZM49.16 127.61L44.33 132.44C44.19 132.58 44 132.66 43.8 132.66C43.6 132.66 43.41 132.58 43.27 132.44L40.85 130.02C40.56 129.73 40.56 129.25 40.85 128.96C41.14 128.67 41.62 128.67 41.91 128.96L43.8 130.85L48.1 126.55C48.39 126.26 48.87 126.26 49.16 126.55C49.45 126.84 49.45 127.32 49.16 127.61Z" fill="#52B922"/>
<rect x="242" y="114" width="119" height="31" rx="15.5" fill="#FAFAFA"/>
<rect x="242.5" y="114.5" width="118" height="30" rx="15" stroke="black" stroke-opacity="0.1"/>
<path d="M251.792 134H250.684L253.888 125.273H254.979L258.184 134H257.076L254.468 126.653H254.4L251.792 134ZM252.201 130.591H256.667V131.528H252.201V130.591ZM262.322 127.455V128.307H258.793V127.455H262.322ZM259.85 134V126.551C259.85 126.176 259.938 125.864 260.114 125.614C260.29 125.364 260.519 125.176 260.8 125.051C261.081 124.926 261.378 124.864 261.691 124.864C261.938 124.864 262.14 124.884 262.296 124.923C262.452 124.963 262.569 125 262.645 125.034L262.356 125.903C262.305 125.886 262.233 125.865 262.143 125.839C262.055 125.814 261.938 125.801 261.793 125.801C261.461 125.801 261.221 125.885 261.073 126.053C260.928 126.22 260.856 126.466 260.856 126.79V134H259.85ZM266.646 127.455V128.307H263.117V127.455H266.646ZM264.174 134V126.551C264.174 126.176 264.262 125.864 264.438 125.614C264.615 125.364 264.843 125.176 265.124 125.051C265.406 124.926 265.703 124.864 266.015 124.864C266.262 124.864 266.464 124.884 266.62 124.923C266.776 124.963 266.893 125 266.97 125.034L266.68 125.903C266.629 125.886 266.558 125.865 266.467 125.839C266.379 125.814 266.262 125.801 266.117 125.801C265.785 125.801 265.545 125.885 265.397 126.053C265.252 126.22 265.18 126.466 265.18 126.79V134H264.174ZM270.445 134.136C269.854 134.136 269.335 133.996 268.889 133.714C268.446 133.433 268.1 133.04 267.85 132.534C267.602 132.028 267.479 131.437 267.479 130.761C267.479 130.08 267.602 129.484 267.85 128.976C268.1 128.467 268.446 128.072 268.889 127.791C269.335 127.51 269.854 127.369 270.445 127.369C271.036 127.369 271.553 127.51 271.996 127.791C272.442 128.072 272.789 128.467 273.036 128.976C273.286 129.484 273.411 130.08 273.411 130.761C273.411 131.437 273.286 132.028 273.036 132.534C272.789 133.04 272.442 133.433 271.996 133.714C271.553 133.996 271.036 134.136 270.445 134.136ZM270.445 133.233C270.894 133.233 271.263 133.118 271.553 132.888C271.843 132.658 272.057 132.355 272.196 131.98C272.335 131.605 272.405 131.199 272.405 130.761C272.405 130.324 272.335 129.916 272.196 129.538C272.057 129.161 271.843 128.855 271.553 128.622C271.263 128.389 270.894 128.273 270.445 128.273C269.996 128.273 269.627 128.389 269.337 128.622C269.047 128.855 268.833 129.161 268.693 129.538C268.554 129.916 268.485 130.324 268.485 130.761C268.485 131.199 268.554 131.605 268.693 131.98C268.833 132.355 269.047 132.658 269.337 132.888C269.627 133.118 269.996 133.233 270.445 133.233ZM274.946 134V127.455H275.917V128.443H275.986C276.105 128.119 276.321 127.857 276.633 127.655C276.946 127.453 277.298 127.352 277.69 127.352C277.764 127.352 277.856 127.354 277.967 127.357C278.078 127.359 278.162 127.364 278.219 127.369V128.392C278.184 128.384 278.106 128.371 277.984 128.354C277.865 128.334 277.738 128.324 277.605 128.324C277.287 128.324 277.003 128.391 276.753 128.524C276.506 128.655 276.309 128.837 276.165 129.07C276.023 129.3 275.952 129.562 275.952 129.858V134H274.946ZM281.683 134.136C281.138 134.136 280.656 133.999 280.238 133.723C279.821 133.445 279.494 133.053 279.258 132.547C279.023 132.038 278.905 131.438 278.905 130.744C278.905 130.057 279.023 129.46 279.258 128.955C279.494 128.449 279.822 128.058 280.243 127.783C280.663 127.507 281.149 127.369 281.7 127.369C282.126 127.369 282.463 127.44 282.71 127.582C282.96 127.722 283.15 127.881 283.281 128.06C283.415 128.236 283.518 128.381 283.592 128.494H283.677V125.273H284.683V134H283.711V132.994H283.592C283.518 133.114 283.413 133.264 283.277 133.446C283.14 133.625 282.946 133.786 282.693 133.928C282.44 134.067 282.104 134.136 281.683 134.136ZM281.819 133.233C282.223 133.233 282.564 133.128 282.842 132.918C283.121 132.705 283.332 132.411 283.477 132.036C283.622 131.658 283.694 131.222 283.694 130.727C283.694 130.239 283.623 129.811 283.481 129.445C283.339 129.075 283.129 128.788 282.851 128.584C282.572 128.376 282.229 128.273 281.819 128.273C281.393 128.273 281.038 128.382 280.754 128.601C280.473 128.817 280.261 129.111 280.119 129.483C279.98 129.852 279.91 130.267 279.91 130.727C279.91 131.193 279.981 131.616 280.123 131.997C280.268 132.375 280.481 132.676 280.763 132.901C281.047 133.122 281.399 133.233 281.819 133.233ZM288.591 134.153C288.176 134.153 287.8 134.075 287.461 133.919C287.123 133.76 286.855 133.531 286.656 133.233C286.457 132.932 286.358 132.568 286.358 132.142C286.358 131.767 286.432 131.463 286.579 131.23C286.727 130.994 286.925 130.81 287.172 130.676C287.419 130.543 287.692 130.443 287.99 130.378C288.291 130.31 288.594 130.256 288.898 130.216C289.295 130.165 289.618 130.126 289.865 130.101C290.115 130.072 290.297 130.026 290.41 129.96C290.527 129.895 290.585 129.781 290.585 129.619V129.585C290.585 129.165 290.47 128.838 290.24 128.605C290.013 128.372 289.667 128.256 289.204 128.256C288.724 128.256 288.348 128.361 288.075 128.571C287.802 128.781 287.611 129.006 287.5 129.244L286.545 128.903C286.716 128.506 286.943 128.196 287.227 127.974C287.514 127.75 287.827 127.594 288.165 127.506C288.506 127.415 288.841 127.369 289.17 127.369C289.381 127.369 289.622 127.395 289.895 127.446C290.17 127.494 290.436 127.595 290.692 127.749C290.95 127.902 291.165 128.134 291.335 128.443C291.506 128.753 291.591 129.168 291.591 129.688V134H290.585V133.114H290.534C290.466 133.256 290.352 133.408 290.193 133.57C290.034 133.732 289.822 133.869 289.558 133.983C289.294 134.097 288.971 134.153 288.591 134.153ZM288.744 133.25C289.142 133.25 289.477 133.172 289.75 133.016C290.025 132.859 290.233 132.658 290.372 132.411C290.514 132.163 290.585 131.903 290.585 131.631V130.71C290.542 130.761 290.449 130.808 290.304 130.851C290.162 130.891 289.997 130.926 289.809 130.957C289.625 130.986 289.444 131.011 289.268 131.034C289.095 131.054 288.954 131.071 288.846 131.085C288.585 131.119 288.341 131.175 288.113 131.251C287.889 131.325 287.707 131.437 287.568 131.588C287.432 131.736 287.363 131.937 287.363 132.193C287.363 132.543 287.493 132.807 287.751 132.986C288.013 133.162 288.344 133.25 288.744 133.25ZM293.563 134V125.273H294.568V128.494H294.654C294.727 128.381 294.83 128.236 294.96 128.06C295.094 127.881 295.284 127.722 295.531 127.582C295.781 127.44 296.119 127.369 296.546 127.369C297.097 127.369 297.583 127.507 298.003 127.783C298.423 128.058 298.752 128.449 298.987 128.955C299.223 129.46 299.341 130.057 299.341 130.744C299.341 131.438 299.223 132.038 298.987 132.547C298.752 133.053 298.425 133.445 298.007 133.723C297.59 133.999 297.108 134.136 296.563 134.136C296.142 134.136 295.806 134.067 295.553 133.928C295.3 133.786 295.105 133.625 294.969 133.446C294.833 133.264 294.727 133.114 294.654 132.994H294.534V134H293.563ZM294.551 130.727C294.551 131.222 294.624 131.658 294.769 132.036C294.914 132.411 295.125 132.705 295.404 132.918C295.682 133.128 296.023 133.233 296.426 133.233C296.847 133.233 297.198 133.122 297.479 132.901C297.763 132.676 297.976 132.375 298.118 131.997C298.263 131.616 298.335 131.193 298.335 130.727C298.335 130.267 298.264 129.852 298.122 129.483C297.983 129.111 297.771 128.817 297.487 128.601C297.206 128.382 296.852 128.273 296.426 128.273C296.017 128.273 295.673 128.376 295.395 128.584C295.117 128.788 294.906 129.075 294.764 129.445C294.622 129.811 294.551 130.239 294.551 130.727ZM301.885 125.273V134H300.879V125.273H301.885ZM306.471 134.136C305.841 134.136 305.297 133.997 304.839 133.719C304.385 133.438 304.034 133.045 303.787 132.543C303.542 132.037 303.42 131.449 303.42 130.778C303.42 130.108 303.542 129.517 303.787 129.006C304.034 128.491 304.378 128.091 304.818 127.804C305.261 127.514 305.778 127.369 306.369 127.369C306.71 127.369 307.047 127.426 307.379 127.54C307.711 127.653 308.014 127.838 308.287 128.094C308.559 128.347 308.777 128.682 308.939 129.099C309.101 129.517 309.182 130.031 309.182 130.642V131.068H304.136V130.199H308.159C308.159 129.83 308.085 129.5 307.937 129.21C307.792 128.92 307.585 128.692 307.315 128.524C307.048 128.357 306.733 128.273 306.369 128.273C305.969 128.273 305.622 128.372 305.329 128.571C305.04 128.767 304.817 129.023 304.66 129.338C304.504 129.653 304.426 129.991 304.426 130.352V130.932C304.426 131.426 304.511 131.845 304.682 132.189C304.855 132.53 305.095 132.79 305.402 132.969C305.709 133.145 306.065 133.233 306.471 133.233C306.736 133.233 306.974 133.196 307.187 133.122C307.403 133.045 307.589 132.932 307.746 132.781C307.902 132.628 308.023 132.437 308.108 132.21L309.079 132.483C308.977 132.812 308.805 133.102 308.564 133.352C308.322 133.599 308.024 133.793 307.669 133.932C307.314 134.068 306.915 134.136 306.471 134.136Z" fill="black" fill-opacity="0.5"/>
<path d="M314.223 134V125.273H317.172C317.854 125.273 318.413 125.389 318.851 125.622C319.288 125.852 319.612 126.169 319.822 126.572C320.032 126.976 320.138 127.435 320.138 127.949C320.138 128.463 320.032 128.919 319.822 129.317C319.612 129.714 319.29 130.027 318.855 130.254C318.42 130.479 317.865 130.591 317.189 130.591H314.802V129.636H317.155C317.621 129.636 317.996 129.568 318.28 129.432C318.567 129.295 318.774 129.102 318.902 128.852C319.032 128.599 319.098 128.298 319.098 127.949C319.098 127.599 319.032 127.294 318.902 127.033C318.771 126.771 318.562 126.57 318.275 126.428C317.988 126.283 317.609 126.21 317.138 126.21H315.28V134H314.223ZM318.331 130.08L320.479 134H319.251L317.138 130.08H318.331ZM324.436 134.136C323.806 134.136 323.262 133.997 322.804 133.719C322.35 133.438 321.999 133.045 321.752 132.543C321.507 132.037 321.385 131.449 321.385 130.778C321.385 130.108 321.507 129.517 321.752 129.006C321.999 128.491 322.343 128.091 322.783 127.804C323.226 127.514 323.743 127.369 324.334 127.369C324.675 127.369 325.012 127.426 325.344 127.54C325.676 127.653 325.979 127.838 326.252 128.094C326.524 128.347 326.742 128.682 326.904 129.099C327.066 129.517 327.146 130.031 327.146 130.642V131.068H322.101V130.199H326.124C326.124 129.83 326.05 129.5 325.902 129.21C325.757 128.92 325.55 128.692 325.28 128.524C325.013 128.357 324.698 128.273 324.334 128.273C323.933 128.273 323.587 128.372 323.294 128.571C323.004 128.767 322.781 129.023 322.625 129.338C322.469 129.653 322.391 129.991 322.391 130.352V130.932C322.391 131.426 322.476 131.845 322.646 132.189C322.82 132.53 323.06 132.79 323.367 132.969C323.673 133.145 324.03 133.233 324.436 133.233C324.7 133.233 324.939 133.196 325.152 133.122C325.368 133.045 325.554 132.932 325.71 132.781C325.867 132.628 325.987 132.437 326.073 132.21L327.044 132.483C326.942 132.812 326.77 133.102 326.529 133.352C326.287 133.599 325.989 133.793 325.634 133.932C325.279 134.068 324.879 134.136 324.436 134.136ZM331.591 127.455V128.307H328.063V127.455H331.591ZM329.119 134V126.551C329.119 126.176 329.208 125.864 329.384 125.614C329.56 125.364 329.789 125.176 330.07 125.051C330.351 124.926 330.648 124.864 330.96 124.864C331.208 124.864 331.409 124.884 331.566 124.923C331.722 124.963 331.838 125 331.915 125.034L331.625 125.903C331.574 125.886 331.503 125.865 331.412 125.839C331.324 125.814 331.208 125.801 331.063 125.801C330.73 125.801 330.49 125.885 330.343 126.053C330.198 126.22 330.125 126.466 330.125 126.79V134H329.119ZM333.001 134V127.455H334.006V134H333.001ZM333.512 126.364C333.316 126.364 333.147 126.297 333.005 126.163C332.866 126.03 332.796 125.869 332.796 125.682C332.796 125.494 332.866 125.334 333.005 125.2C333.147 125.067 333.316 125 333.512 125C333.708 125 333.876 125.067 334.015 125.2C334.157 125.334 334.228 125.494 334.228 125.682C334.228 125.869 334.157 126.03 334.015 126.163C333.876 126.297 333.708 126.364 333.512 126.364ZM336.854 125.273V134H335.848V125.273H336.854ZM339.702 125.273V134H338.696V125.273H339.702ZM340.623 134.84H352.623V122.84H340.623V134.84Z" fill="black"/>
<path d="M34.429 184V172.364H38.7926C39.6866 172.364 40.4366 172.519 41.0426 172.83C41.6525 173.14 42.1127 173.576 42.4233 174.136C42.7377 174.693 42.8949 175.343 42.8949 176.085C42.8949 176.831 42.7358 177.479 42.4176 178.028C42.1032 178.574 41.6392 178.996 41.0256 179.295C40.4119 179.591 39.6581 179.739 38.7642 179.739H35.6562V177.989H38.4801C39.0028 177.989 39.4309 177.917 39.7642 177.773C40.0975 177.625 40.3438 177.411 40.5028 177.131C40.6657 176.847 40.7472 176.498 40.7472 176.085C40.7472 175.672 40.6657 175.32 40.5028 175.028C40.34 174.733 40.0919 174.509 39.7585 174.358C39.4252 174.203 38.9953 174.125 38.4688 174.125H36.5369V184H34.429ZM40.4403 178.727L43.321 184H40.9688L38.1392 178.727H40.4403ZM48.483 184.17C47.608 184.17 46.8523 183.989 46.2159 183.625C45.5833 183.258 45.0966 182.739 44.7557 182.068C44.4148 181.394 44.2443 180.6 44.2443 179.688C44.2443 178.79 44.4148 178.002 44.7557 177.324C45.1004 176.642 45.5814 176.112 46.1989 175.733C46.8163 175.35 47.5417 175.159 48.375 175.159C48.9129 175.159 49.4205 175.246 49.8977 175.42C50.3788 175.591 50.803 175.856 51.1705 176.216C51.5417 176.576 51.8333 177.034 52.0455 177.591C52.2576 178.144 52.3636 178.803 52.3636 179.568V180.199H45.2102V178.812H50.392C50.3883 178.419 50.303 178.068 50.1364 177.761C49.9697 177.451 49.7367 177.206 49.4375 177.028C49.142 176.85 48.7973 176.761 48.4034 176.761C47.983 176.761 47.6136 176.864 47.2955 177.068C46.9773 177.269 46.7292 177.534 46.5511 177.864C46.3769 178.189 46.2879 178.547 46.2841 178.938V180.148C46.2841 180.655 46.3769 181.091 46.5625 181.455C46.7481 181.814 47.0076 182.091 47.3409 182.284C47.6742 182.473 48.0644 182.568 48.5114 182.568C48.8106 182.568 49.0814 182.527 49.3239 182.443C49.5663 182.356 49.7765 182.229 49.9545 182.062C50.1326 181.896 50.267 181.689 50.358 181.443L52.2784 181.659C52.1572 182.167 51.9261 182.61 51.5852 182.989C51.2481 183.364 50.8163 183.655 50.2898 183.864C49.7633 184.068 49.161 184.17 48.483 184.17ZM57.8991 187.455C57.1605 187.455 56.526 187.354 55.9957 187.153C55.4654 186.956 55.0393 186.691 54.7173 186.358C54.3954 186.025 54.1719 185.655 54.0469 185.25L55.8991 184.801C55.9825 184.972 56.1037 185.14 56.2628 185.307C56.4219 185.477 56.6359 185.617 56.9048 185.727C57.1776 185.841 57.5204 185.898 57.9332 185.898C58.5166 185.898 58.9995 185.756 59.3821 185.472C59.7647 185.191 59.956 184.729 59.956 184.085V182.432H59.8537C59.7476 182.644 59.5923 182.862 59.3878 183.085C59.187 183.309 58.92 183.496 58.5866 183.648C58.2571 183.799 57.8423 183.875 57.3423 183.875C56.6719 183.875 56.0639 183.718 55.5185 183.403C54.9768 183.085 54.545 182.612 54.223 181.983C53.9048 181.35 53.7457 180.559 53.7457 179.608C53.7457 178.65 53.9048 177.841 54.223 177.182C54.545 176.519 54.9787 176.017 55.5241 175.676C56.0696 175.331 56.6776 175.159 57.348 175.159C57.8594 175.159 58.2798 175.246 58.6094 175.42C58.9427 175.591 59.2079 175.797 59.4048 176.04C59.6018 176.278 59.7514 176.504 59.8537 176.716H59.9673V175.273H61.9957V184.142C61.9957 184.888 61.8177 185.506 61.4616 185.994C61.1056 186.483 60.6188 186.848 60.0014 187.091C59.384 187.333 58.6832 187.455 57.8991 187.455ZM57.9162 182.261C58.3518 182.261 58.723 182.155 59.0298 181.943C59.3366 181.731 59.5696 181.426 59.7287 181.028C59.8878 180.631 59.9673 180.153 59.9673 179.597C59.9673 179.047 59.8878 178.566 59.7287 178.153C59.5734 177.741 59.3423 177.42 59.0355 177.193C58.7325 176.962 58.3594 176.847 57.9162 176.847C57.4579 176.847 57.0753 176.966 56.7685 177.205C56.4616 177.443 56.2306 177.771 56.0753 178.188C55.92 178.6 55.8423 179.07 55.8423 179.597C55.8423 180.131 55.92 180.598 56.0753 181C56.2344 181.398 56.4673 181.708 56.7741 181.932C57.0848 182.152 57.4654 182.261 57.9162 182.261ZM69.6662 180.33V175.273H71.723V184H69.7287V182.449H69.6378C69.4408 182.937 69.117 183.337 68.6662 183.648C68.2192 183.958 67.6681 184.114 67.0128 184.114C66.4408 184.114 65.9351 183.987 65.4957 183.733C65.0601 183.475 64.7192 183.102 64.473 182.614C64.2268 182.121 64.1037 181.527 64.1037 180.83V175.273H66.1605V180.511C66.1605 181.064 66.312 181.504 66.6151 181.83C66.9181 182.155 67.3158 182.318 67.8082 182.318C68.1113 182.318 68.4048 182.244 68.6889 182.097C68.973 181.949 69.206 181.729 69.3878 181.438C69.5734 181.142 69.6662 180.773 69.6662 180.33ZM75.8949 172.364V184H73.8381V172.364H75.8949ZM80.5213 184.176C79.9683 184.176 79.4702 184.078 79.027 183.881C78.5876 183.68 78.2391 183.384 77.9815 182.994C77.7277 182.604 77.6009 182.123 77.6009 181.551C77.6009 181.059 77.6918 180.652 77.8736 180.33C78.0554 180.008 78.3035 179.75 78.6179 179.557C78.9323 179.364 79.2865 179.218 79.6804 179.119C80.0781 179.017 80.4891 178.943 80.9134 178.898C81.4247 178.845 81.8395 178.797 82.1577 178.756C82.4759 178.71 82.7069 178.642 82.8509 178.551C82.9986 178.456 83.0724 178.311 83.0724 178.114V178.08C83.0724 177.652 82.9455 177.32 82.6918 177.085C82.438 176.85 82.0724 176.733 81.5952 176.733C81.0914 176.733 80.6918 176.843 80.3963 177.062C80.1046 177.282 79.9077 177.542 79.8054 177.841L77.8849 177.568C78.0365 177.038 78.2865 176.595 78.6349 176.239C78.9834 175.879 79.4096 175.61 79.9134 175.432C80.4171 175.25 80.974 175.159 81.5838 175.159C82.0043 175.159 82.4228 175.208 82.8395 175.307C83.2562 175.405 83.6368 175.568 83.9815 175.795C84.3262 176.019 84.6027 176.324 84.8111 176.71C85.0232 177.097 85.1293 177.58 85.1293 178.159V184H83.152V182.801H83.0838C82.9588 183.044 82.7827 183.271 82.5554 183.483C82.3319 183.691 82.0497 183.86 81.7088 183.989C81.3717 184.114 80.9759 184.176 80.5213 184.176ZM81.0554 182.665C81.4683 182.665 81.8262 182.583 82.1293 182.42C82.4323 182.254 82.6652 182.034 82.8281 181.761C82.9948 181.489 83.0781 181.191 83.0781 180.869V179.841C83.0137 179.894 82.9039 179.943 82.7486 179.989C82.5971 180.034 82.4266 180.074 82.2372 180.108C82.0478 180.142 81.8603 180.172 81.6747 180.199C81.4891 180.225 81.3281 180.248 81.1918 180.267C80.8849 180.309 80.6103 180.377 80.3679 180.472C80.1255 180.566 79.9342 180.699 79.794 180.869C79.6539 181.036 79.5838 181.252 79.5838 181.517C79.5838 181.896 79.7221 182.182 79.9986 182.375C80.2751 182.568 80.6274 182.665 81.0554 182.665ZM87.1974 184V175.273H89.1918V176.727H89.2827C89.4418 176.223 89.7145 175.835 90.1009 175.562C90.491 175.286 90.9361 175.148 91.4361 175.148C91.5497 175.148 91.6766 175.153 91.8168 175.165C91.9607 175.172 92.08 175.186 92.1747 175.205V177.097C92.0876 177.066 91.9493 177.04 91.7599 177.017C91.5743 176.991 91.3944 176.977 91.2202 176.977C90.8452 176.977 90.508 177.059 90.2088 177.222C89.9134 177.381 89.6804 177.602 89.5099 177.886C89.3395 178.17 89.2543 178.498 89.2543 178.869V184H87.1974ZM107.999 178.182C107.999 179.436 107.764 180.509 107.294 181.403C106.828 182.294 106.192 182.975 105.385 183.449C104.582 183.922 103.671 184.159 102.652 184.159C101.633 184.159 100.72 183.922 99.9134 183.449C99.1103 182.972 98.474 182.288 98.0043 181.398C97.5384 180.504 97.3054 179.432 97.3054 178.182C97.3054 176.928 97.5384 175.856 98.0043 174.966C98.474 174.072 99.1103 173.388 99.9134 172.915C100.72 172.441 101.633 172.205 102.652 172.205C103.671 172.205 104.582 172.441 105.385 172.915C106.192 173.388 106.828 174.072 107.294 174.966C107.764 175.856 107.999 176.928 107.999 178.182ZM105.879 178.182C105.879 177.299 105.741 176.555 105.464 175.949C105.192 175.339 104.813 174.879 104.328 174.568C103.843 174.254 103.285 174.097 102.652 174.097C102.019 174.097 101.461 174.254 100.976 174.568C100.491 174.879 100.11 175.339 99.8338 175.949C99.5611 176.555 99.4247 177.299 99.4247 178.182C99.4247 179.064 99.5611 179.811 99.8338 180.42C100.11 181.027 100.491 181.487 100.976 181.801C101.461 182.112 102.019 182.267 102.652 182.267C103.285 182.267 103.843 182.112 104.328 181.801C104.813 181.487 105.192 181.027 105.464 180.42C105.741 179.811 105.879 179.064 105.879 178.182ZM114.321 175.273V176.864H109.162V175.273H114.321ZM110.452 184V174.449C110.452 173.862 110.573 173.373 110.815 172.983C111.062 172.593 111.391 172.301 111.804 172.108C112.217 171.915 112.675 171.818 113.179 171.818C113.535 171.818 113.851 171.847 114.128 171.903C114.404 171.96 114.609 172.011 114.741 172.057L114.332 173.648C114.245 173.621 114.135 173.595 114.003 173.568C113.87 173.538 113.723 173.523 113.56 173.523C113.177 173.523 112.906 173.616 112.747 173.801C112.592 173.983 112.514 174.244 112.514 174.585V184H110.452ZM120.352 175.273V176.864H115.193V175.273H120.352ZM116.483 184V174.449C116.483 173.862 116.604 173.373 116.847 172.983C117.093 172.593 117.422 172.301 117.835 172.108C118.248 171.915 118.706 171.818 119.21 171.818C119.566 171.818 119.883 171.847 120.159 171.903C120.436 171.96 120.64 172.011 120.773 172.057L120.364 173.648C120.277 173.621 120.167 173.595 120.034 173.568C119.902 173.538 119.754 173.523 119.591 173.523C119.208 173.523 118.938 173.616 118.778 173.801C118.623 173.983 118.545 174.244 118.545 174.585V184H116.483ZM125.499 184.17C124.624 184.17 123.868 183.989 123.232 183.625C122.599 183.258 122.112 182.739 121.771 182.068C121.43 181.394 121.26 180.6 121.26 179.688C121.26 178.79 121.43 178.002 121.771 177.324C122.116 176.642 122.597 176.112 123.214 175.733C123.832 175.35 124.557 175.159 125.391 175.159C125.929 175.159 126.436 175.246 126.913 175.42C127.394 175.591 127.819 175.856 128.186 176.216C128.557 176.576 128.849 177.034 129.061 177.591C129.273 178.144 129.379 178.803 129.379 179.568V180.199H122.226V178.812H127.408C127.404 178.419 127.319 178.068 127.152 177.761C126.985 177.451 126.752 177.206 126.453 177.028C126.158 176.85 125.813 176.761 125.419 176.761C124.999 176.761 124.629 176.864 124.311 177.068C123.993 177.269 123.745 177.534 123.567 177.864C123.393 178.189 123.304 178.547 123.3 178.938V180.148C123.3 180.655 123.393 181.091 123.578 181.455C123.764 181.814 124.023 182.091 124.357 182.284C124.69 182.473 125.08 182.568 125.527 182.568C125.826 182.568 126.097 182.527 126.339 182.443C126.582 182.356 126.792 182.229 126.97 182.062C127.148 181.896 127.283 181.689 127.374 181.443L129.294 181.659C129.173 182.167 128.942 182.61 128.601 182.989C128.264 183.364 127.832 183.655 127.305 183.864C126.779 184.068 126.177 184.17 125.499 184.17ZM131.119 184V175.273H133.114V176.727H133.205C133.364 176.223 133.636 175.835 134.023 175.562C134.413 175.286 134.858 175.148 135.358 175.148C135.472 175.148 135.598 175.153 135.739 175.165C135.883 175.172 136.002 175.186 136.097 175.205V177.097C136.009 177.066 135.871 177.04 135.682 177.017C135.496 176.991 135.316 176.977 135.142 176.977C134.767 176.977 134.43 177.059 134.131 177.222C133.835 177.381 133.602 177.602 133.432 177.886C133.261 178.17 133.176 178.498 133.176 178.869V184H131.119Z" fill="black"/>
<path d="M141.653 179.636C141.653 178.562 141.793 177.575 142.071 176.675C142.352 175.771 142.753 174.94 143.273 174.182H144.159C143.955 174.463 143.763 174.81 143.584 175.222C143.408 175.631 143.253 176.081 143.119 176.572C142.986 177.061 142.881 177.567 142.804 178.089C142.73 178.612 142.693 179.128 142.693 179.636C142.693 180.312 142.759 180.999 142.889 181.695C143.02 182.391 143.196 183.037 143.418 183.634C143.639 184.23 143.886 184.716 144.159 185.091H143.273C142.753 184.332 142.352 183.503 142.071 182.602C141.793 181.699 141.653 180.71 141.653 179.636ZM145.626 184V183.233L148.507 180.08C148.845 179.71 149.123 179.389 149.342 179.116C149.561 178.841 149.723 178.582 149.828 178.341C149.936 178.097 149.99 177.841 149.99 177.574C149.99 177.267 149.916 177.001 149.768 176.777C149.623 176.553 149.424 176.379 149.172 176.257C148.919 176.135 148.635 176.074 148.319 176.074C147.984 176.074 147.691 176.143 147.441 176.283C147.194 176.419 147.002 176.611 146.866 176.858C146.733 177.105 146.666 177.395 146.666 177.727H145.66C145.66 177.216 145.778 176.767 146.014 176.381C146.25 175.994 146.571 175.693 146.977 175.477C147.386 175.261 147.845 175.153 148.353 175.153C148.865 175.153 149.318 175.261 149.713 175.477C150.108 175.693 150.417 175.984 150.642 176.351C150.866 176.717 150.978 177.125 150.978 177.574C150.978 177.895 150.92 178.209 150.804 178.516C150.69 178.82 150.491 179.159 150.207 179.534C149.926 179.906 149.535 180.361 149.035 180.898L147.075 182.994V183.062H151.132V184H145.626ZM152.909 186.455V177.455H153.88V178.494H154C154.074 178.381 154.176 178.236 154.306 178.06C154.44 177.881 154.63 177.722 154.877 177.582C155.127 177.44 155.466 177.369 155.892 177.369C156.443 177.369 156.929 177.507 157.349 177.783C157.77 178.058 158.098 178.449 158.333 178.955C158.569 179.46 158.687 180.057 158.687 180.744C158.687 181.438 158.569 182.038 158.333 182.547C158.098 183.053 157.771 183.445 157.353 183.723C156.936 183.999 156.454 184.136 155.909 184.136C155.488 184.136 155.152 184.067 154.899 183.928C154.646 183.786 154.451 183.625 154.315 183.446C154.179 183.264 154.074 183.114 154 182.994H153.914V186.455H152.909ZM153.897 180.727C153.897 181.222 153.97 181.658 154.115 182.036C154.26 182.411 154.471 182.705 154.75 182.918C155.028 183.128 155.369 183.233 155.772 183.233C156.193 183.233 156.544 183.122 156.825 182.901C157.109 182.676 157.322 182.375 157.464 181.997C157.609 181.616 157.681 181.193 157.681 180.727C157.681 180.267 157.61 179.852 157.468 179.483C157.329 179.111 157.118 178.817 156.833 178.601C156.552 178.382 156.199 178.273 155.772 178.273C155.363 178.273 155.02 178.376 154.741 178.584C154.463 178.788 154.252 179.075 154.11 179.445C153.968 179.811 153.897 180.239 153.897 180.727ZM160.221 184V177.455H161.193V178.477H161.278C161.414 178.128 161.635 177.857 161.939 177.663C162.243 177.467 162.608 177.369 163.034 177.369C163.466 177.369 163.825 177.467 164.112 177.663C164.402 177.857 164.627 178.128 164.789 178.477H164.858C165.025 178.139 165.277 177.871 165.612 177.672C165.947 177.47 166.349 177.369 166.818 177.369C167.403 177.369 167.882 177.553 168.254 177.919C168.626 178.283 168.812 178.849 168.812 179.619V184H167.806V179.619C167.806 179.136 167.674 178.791 167.41 178.584C167.146 178.376 166.835 178.273 166.477 178.273C166.017 178.273 165.66 178.412 165.407 178.69C165.154 178.966 165.028 179.315 165.028 179.739V184H164.005V179.517C164.005 179.145 163.885 178.845 163.643 178.618C163.402 178.388 163.091 178.273 162.71 178.273C162.449 178.273 162.204 178.342 161.977 178.482C161.752 178.621 161.571 178.814 161.431 179.061C161.295 179.305 161.227 179.588 161.227 179.909V184H160.221ZM176.873 177.455V178.307H173.48V177.455H176.873ZM174.469 175.886H175.475V182.125C175.475 182.409 175.516 182.622 175.598 182.764C175.684 182.903 175.792 182.997 175.922 183.045C176.056 183.091 176.196 183.114 176.344 183.114C176.455 183.114 176.546 183.108 176.617 183.097C176.688 183.082 176.745 183.071 176.787 183.062L176.992 183.966C176.924 183.991 176.828 184.017 176.706 184.043C176.584 184.071 176.429 184.085 176.242 184.085C175.958 184.085 175.679 184.024 175.407 183.902C175.137 183.78 174.912 183.594 174.733 183.344C174.557 183.094 174.469 182.778 174.469 182.398V175.886ZM180.974 184.136C180.383 184.136 179.865 183.996 179.419 183.714C178.975 183.433 178.629 183.04 178.379 182.534C178.132 182.028 178.008 181.437 178.008 180.761C178.008 180.08 178.132 179.484 178.379 178.976C178.629 178.467 178.975 178.072 179.419 177.791C179.865 177.51 180.383 177.369 180.974 177.369C181.565 177.369 182.082 177.51 182.525 177.791C182.971 178.072 183.318 178.467 183.565 178.976C183.815 179.484 183.94 180.08 183.94 180.761C183.94 181.437 183.815 182.028 183.565 182.534C183.318 183.04 182.971 183.433 182.525 183.714C182.082 183.996 181.565 184.136 180.974 184.136ZM180.974 183.233C181.423 183.233 181.792 183.118 182.082 182.888C182.372 182.658 182.586 182.355 182.725 181.98C182.865 181.605 182.934 181.199 182.934 180.761C182.934 180.324 182.865 179.916 182.725 179.538C182.586 179.161 182.372 178.855 182.082 178.622C181.792 178.389 181.423 178.273 180.974 178.273C180.525 178.273 180.156 178.389 179.866 178.622C179.576 178.855 179.362 179.161 179.223 179.538C179.083 179.916 179.014 180.324 179.014 180.761C179.014 181.199 179.083 181.605 179.223 181.98C179.362 182.355 179.576 182.658 179.866 182.888C180.156 183.118 180.525 183.233 180.974 183.233ZM188.629 182.21V181.341L192.464 175.273H193.094V176.619H192.668L189.771 181.205V181.273H194.935V182.21H188.629ZM192.737 184V181.946V181.541V175.273H193.742V184H192.737ZM196.549 186.455V177.455H197.521V178.494H197.64C197.714 178.381 197.816 178.236 197.947 178.06C198.081 177.881 198.271 177.722 198.518 177.582C198.768 177.44 199.106 177.369 199.532 177.369C200.083 177.369 200.569 177.507 200.99 177.783C201.41 178.058 201.738 178.449 201.974 178.955C202.21 179.46 202.328 180.057 202.328 180.744C202.328 181.438 202.21 182.038 201.974 182.547C201.738 183.053 201.412 183.445 200.994 183.723C200.576 183.999 200.095 184.136 199.549 184.136C199.129 184.136 198.792 184.067 198.539 183.928C198.287 183.786 198.092 183.625 197.956 183.446C197.819 183.264 197.714 183.114 197.64 182.994H197.555V186.455H196.549ZM197.538 180.727C197.538 181.222 197.61 181.658 197.755 182.036C197.9 182.411 198.112 182.705 198.39 182.918C198.669 183.128 199.01 183.233 199.413 183.233C199.833 183.233 200.184 183.122 200.466 182.901C200.75 182.676 200.963 182.375 201.105 181.997C201.25 181.616 201.322 181.193 201.322 180.727C201.322 180.267 201.251 179.852 201.109 179.483C200.97 179.111 200.758 178.817 200.474 178.601C200.193 178.382 199.839 178.273 199.413 178.273C199.004 178.273 198.66 178.376 198.382 178.584C198.103 178.788 197.893 179.075 197.751 179.445C197.609 179.811 197.538 180.239 197.538 180.727ZM203.862 184V177.455H204.833V178.477H204.919C205.055 178.128 205.275 177.857 205.579 177.663C205.883 177.467 206.248 177.369 206.674 177.369C207.106 177.369 207.466 177.467 207.752 177.663C208.042 177.857 208.268 178.128 208.43 178.477H208.498C208.666 178.139 208.917 177.871 209.252 177.672C209.588 177.47 209.99 177.369 210.458 177.369C211.044 177.369 211.522 177.553 211.895 177.919C212.267 178.283 212.453 178.849 212.453 179.619V184H211.447V179.619C211.447 179.136 211.315 178.791 211.051 178.584C210.787 178.376 210.475 178.273 210.118 178.273C209.657 178.273 209.301 178.412 209.048 178.69C208.795 178.966 208.669 179.315 208.669 179.739V184H207.646V179.517C207.646 179.145 207.525 178.845 207.284 178.618C207.042 178.388 206.731 178.273 206.35 178.273C206.089 178.273 205.845 178.342 205.618 178.482C205.393 178.621 205.211 178.814 205.072 179.061C204.936 179.305 204.868 179.588 204.868 179.909V184H203.862ZM216.439 180.318C216.439 181.392 216.299 182.381 216.017 183.284C215.739 184.185 215.34 185.014 214.82 185.773H213.934C214.138 185.491 214.328 185.145 214.505 184.733C214.684 184.324 214.84 183.875 214.973 183.386C215.107 182.895 215.211 182.388 215.284 181.865C215.361 181.339 215.4 180.824 215.4 180.318C215.4 179.642 215.334 178.956 215.203 178.26C215.073 177.564 214.897 176.918 214.675 176.321C214.453 175.724 214.206 175.239 213.934 174.864H214.82C215.34 175.622 215.739 176.453 216.017 177.357C216.299 178.257 216.439 179.244 216.439 180.318Z" fill="black" fill-opacity="0.6"/>
<g opacity="0.7">
<rect x="33" y="196" width="229" height="13" rx="6.5" fill="#D0D3DA"/>
<rect x="33" y="214" width="274" height="14" rx="7" fill="#D0D3DA"/>
</g>
<rect x="18" y="256" width="359" height="109" rx="12" fill="#FAFAFA"/>
<rect x="18.5" y="256.5" width="358" height="108" rx="11.5" stroke="black" stroke-opacity="0.1"/>
<path d="M35.84 285.708C34.9973 285.708 34.1973 285.569 33.44 285.292C32.6933 285.015 32.0587 284.572 31.536 283.964C31.024 283.356 30.7147 282.577 30.608 281.628H32.672C32.8533 282.46 33.2373 283.057 33.824 283.42C34.4213 283.783 35.104 283.964 35.872 283.964C36.608 283.964 37.1947 283.809 37.632 283.5C38.0693 283.191 38.288 282.732 38.288 282.124C38.288 281.676 38.1493 281.319 37.872 281.052C37.6053 280.785 37.2693 280.588 36.864 280.46C36.4587 280.321 35.8987 280.172 35.184 280.012C34.2987 279.82 33.5787 279.623 33.024 279.42C32.4693 279.217 31.9947 278.892 31.6 278.444C31.216 277.996 31.024 277.383 31.024 276.604C31.024 275.868 31.2053 275.239 31.568 274.716C31.9307 274.183 32.4267 273.783 33.056 273.516C33.696 273.239 34.4213 273.1 35.232 273.1C36.448 273.1 37.4933 273.415 38.368 274.044C39.2533 274.673 39.792 275.601 39.984 276.828H37.952C37.792 276.156 37.4667 275.66 36.976 275.34C36.4853 275.009 35.8933 274.844 35.2 274.844C34.5387 274.844 34.016 274.983 33.632 275.26C33.248 275.537 33.056 275.927 33.056 276.428C33.056 276.823 33.1787 277.137 33.424 277.372C33.68 277.607 34 277.788 34.384 277.916C34.768 278.033 35.2907 278.167 35.952 278.316C36.8907 278.519 37.648 278.732 38.224 278.956C38.8 279.169 39.2907 279.521 39.696 280.012C40.112 280.492 40.32 281.153 40.32 281.996C40.32 283.137 39.9253 284.044 39.136 284.716C38.3573 285.377 37.2587 285.708 35.84 285.708ZM44.1193 285.5C43.4259 285.5 42.9033 285.34 42.5513 285.02C42.1993 284.7 42.0233 284.172 42.0233 283.436V273.292H43.9113V282.94C43.9113 283.292 43.9699 283.543 44.0873 283.692C44.2153 283.841 44.4393 283.916 44.7593 283.916H45.2873V285.5H44.1193ZM48.6468 285.5H46.7588V276.556H48.6468V285.5ZM47.7028 275.404C47.3614 275.404 47.0681 275.297 46.8228 275.084C46.5881 274.86 46.4708 274.583 46.4708 274.252C46.4708 273.921 46.5881 273.649 46.8228 273.436C47.0681 273.212 47.3614 273.1 47.7028 273.1C48.0548 273.1 48.3481 273.212 48.5828 273.436C48.8174 273.649 48.9348 273.921 48.9348 274.252C48.9348 274.583 48.8174 274.86 48.5828 275.084C48.3481 275.297 48.0548 275.404 47.7028 275.404ZM54.3119 285.676C53.5332 285.676 52.8452 285.484 52.2479 285.1C51.6612 284.705 51.2025 284.156 50.8719 283.452C50.5412 282.748 50.3759 281.943 50.3759 281.036C50.3759 280.129 50.5412 279.324 50.8719 278.62C51.2025 277.916 51.6612 277.372 52.2479 276.988C52.8452 276.593 53.5332 276.396 54.3119 276.396C54.8772 276.396 55.3679 276.497 55.7839 276.7C56.1999 276.903 56.5999 277.26 56.9839 277.772V273.292H58.8719V285.5H56.9839V284.284C56.5999 284.796 56.1999 285.159 55.7839 285.372C55.3785 285.575 54.8879 285.676 54.3119 285.676ZM54.6959 284.044C55.1759 284.044 55.6025 283.916 55.9759 283.66C56.3492 283.404 56.6425 283.047 56.8559 282.588C57.0692 282.129 57.1759 281.612 57.1759 281.036C57.1759 280.46 57.0692 279.943 56.8559 279.484C56.6425 279.025 56.3492 278.668 55.9759 278.412C55.6025 278.156 55.1759 278.028 54.6959 278.028C53.9599 278.028 53.3732 278.311 52.9359 278.876C52.4985 279.441 52.2799 280.161 52.2799 281.036C52.2799 281.911 52.4985 282.631 52.9359 283.196C53.3732 283.761 53.9599 284.044 54.6959 284.044ZM64.7298 285.676C63.8551 285.676 63.0764 285.479 62.3938 285.084C61.7218 284.679 61.1991 284.129 60.8258 283.436C60.4524 282.732 60.2658 281.943 60.2658 281.068C60.2658 280.257 60.4311 279.495 60.7618 278.78C61.1031 278.065 61.6044 277.489 62.2658 277.052C62.9378 276.615 63.7431 276.396 64.6818 276.396C65.4711 276.396 66.2018 276.567 66.8738 276.908C67.5564 277.239 68.1004 277.745 68.5058 278.428C68.9218 279.111 69.1298 279.948 69.1298 280.94V281.42H62.1858C62.2498 281.836 62.3511 282.167 62.4898 282.412C62.7031 282.913 63.0071 283.308 63.4018 283.596C63.8071 283.884 64.2658 284.028 64.7778 284.028C65.3218 284.028 65.7858 283.889 66.1698 283.612C66.5644 283.324 66.8471 282.967 67.0178 282.54H68.9698C68.6818 283.468 68.1804 284.225 67.4658 284.812C66.7511 285.388 65.8391 285.676 64.7298 285.676ZM67.1618 279.932C67.1191 279.601 67.0231 279.319 66.8738 279.084C66.6604 278.711 66.3671 278.428 65.9938 278.236C65.6204 278.033 65.2044 277.932 64.7458 277.932C64.2764 277.932 63.8604 278.033 63.4978 278.236C63.1351 278.428 62.8418 278.711 62.6178 279.084C62.4791 279.297 62.3724 279.58 62.2978 279.932H67.1618ZM70.8213 285.5V276.556H72.7093V277.676C73.0613 277.207 73.4453 276.876 73.8613 276.684C74.2879 276.492 74.7893 276.396 75.3653 276.396H75.5733V278.236H75.0933C74.3786 278.236 73.8293 278.428 73.4453 278.812C72.9546 279.271 72.7093 280.06 72.7093 281.18V285.5H70.8213Z" fill="black"/>
<rect x="233" y="268" width="39" height="23" rx="4" fill="white"/>
<rect x="233.5" y="268.5" width="38" height="22" rx="3.5" stroke="black" stroke-opacity="0.05"/>
<path d="M241.594 276.248C241.266 276.664 240.878 277.012 240.43 277.292C239.982 277.572 239.494 277.776 238.966 277.904V276.824C239.526 276.712 240.042 276.46 240.514 276.068C240.994 275.676 241.362 275.268 241.618 274.844H242.698V284H241.594V276.248ZM248.97 284.108C247.962 284.108 247.178 283.712 246.618 282.92C246.066 282.128 245.79 280.956 245.79 279.404C245.79 277.86 246.062 276.696 246.606 275.912C247.158 275.12 247.926 274.724 248.91 274.724C249.918 274.724 250.698 275.124 251.25 275.924C251.802 276.716 252.078 277.892 252.078 279.452C252.078 280.988 251.806 282.148 251.262 282.932C250.718 283.716 249.954 284.108 248.97 284.108ZM248.946 283.112C249.586 283.112 250.082 282.808 250.434 282.2C250.794 281.584 250.974 280.664 250.974 279.44C250.974 278.2 250.79 277.272 250.422 276.656C250.054 276.032 249.546 275.72 248.898 275.72C248.258 275.72 247.762 276.028 247.41 276.644C247.066 277.26 246.894 278.184 246.894 279.416C246.894 280.648 247.07 281.572 247.422 282.188C247.782 282.804 248.29 283.112 248.946 283.112ZM254.822 284H253.718V274.844H254.822V279.044L258.626 274.844H260.042L255.974 279.236L260.258 284H258.794L254.822 279.548V284ZM263.745 286.64C262.985 286.64 262.329 286.476 261.777 286.148C261.233 285.82 260.901 285.284 260.781 284.54H261.825C262.033 285.34 262.669 285.74 263.733 285.74C265.053 285.74 265.713 285.148 265.713 283.964V282.968C265.377 283.4 265.045 283.7 264.717 283.868C264.389 284.036 263.997 284.12 263.541 284.12C262.957 284.12 262.441 283.976 261.993 283.688C261.545 283.4 261.197 283 260.949 282.488C260.709 281.968 260.589 281.376 260.589 280.712C260.589 280.032 260.709 279.432 260.949 278.912C261.197 278.384 261.541 277.976 261.981 277.688C262.429 277.392 262.945 277.244 263.529 277.244C263.993 277.244 264.389 277.332 264.717 277.508C265.045 277.676 265.377 277.972 265.713 278.396V277.364H266.733V283.772C266.733 284.796 266.469 285.528 265.941 285.968C265.413 286.416 264.681 286.64 263.745 286.64ZM263.637 283.22C264.045 283.22 264.409 283.112 264.729 282.896C265.049 282.672 265.297 282.368 265.473 281.984C265.657 281.6 265.749 281.164 265.749 280.676C265.749 280.196 265.657 279.764 265.473 279.38C265.297 278.996 265.045 278.696 264.717 278.48C264.397 278.256 264.037 278.144 263.637 278.144C263.229 278.144 262.869 278.256 262.557 278.48C262.253 278.696 262.017 278.996 261.849 279.38C261.689 279.764 261.609 280.196 261.609 280.676C261.609 281.164 261.689 281.6 261.849 281.984C262.017 282.368 262.253 282.672 262.557 282.896C262.869 283.112 263.229 283.22 263.637 283.22Z" fill="black" fill-opacity="0.5"/>
<path d="M284.92 285.724C283.608 285.724 282.504 285.436 281.608 284.86C280.722 284.284 280.061 283.516 279.624 282.556C279.186 281.596 278.968 280.54 278.968 279.388C278.968 278.236 279.186 277.185 279.624 276.236C280.061 275.276 280.722 274.508 281.608 273.932C282.504 273.356 283.608 273.068 284.92 273.068C286.456 273.068 287.698 273.431 288.648 274.156C289.597 274.881 290.2 275.868 290.456 277.116H287.928C287.725 276.476 287.368 275.985 286.856 275.644C286.354 275.303 285.704 275.132 284.904 275.132C284.146 275.132 283.501 275.319 282.968 275.692C282.445 276.055 282.045 276.556 281.768 277.196C281.501 277.836 281.368 278.561 281.368 279.372C281.368 280.652 281.688 281.687 282.328 282.476C282.978 283.265 283.906 283.66 285.112 283.66C286.093 283.66 286.861 283.415 287.416 282.924C287.97 282.433 288.258 281.713 288.28 280.764H285.576V278.86H290.568V285.5H288.472V284.124C288.077 284.689 287.565 285.1 286.936 285.356C286.317 285.601 285.645 285.724 284.92 285.724ZM294.845 285.5H292.541V273.292H294.845V278.348H300.077V273.292H302.381V285.5H300.077V280.412H294.845V285.5ZM310.028 285.724C308.727 285.724 307.634 285.441 306.748 284.876C305.863 284.3 305.202 283.532 304.764 282.572C304.327 281.612 304.108 280.551 304.108 279.388C304.108 278.225 304.327 277.169 304.764 276.22C305.202 275.26 305.863 274.497 306.748 273.932C307.634 273.356 308.727 273.068 310.028 273.068C311.5 273.068 312.69 273.436 313.596 274.172C314.503 274.908 315.042 275.889 315.212 277.116H312.7C312.594 276.476 312.295 275.985 311.804 275.644C311.314 275.303 310.7 275.132 309.964 275.132C308.866 275.132 308.012 275.521 307.404 276.3C306.807 277.068 306.508 278.097 306.508 279.388C306.508 280.689 306.807 281.729 307.404 282.508C308.012 283.276 308.866 283.66 309.964 283.66C310.711 283.66 311.324 283.484 311.804 283.132C312.284 282.769 312.583 282.236 312.7 281.532H315.212C315.042 282.823 314.503 283.847 313.596 284.604C312.7 285.351 311.511 285.724 310.028 285.724ZM325.103 285.724C324.314 285.724 323.599 285.569 322.959 285.26C322.33 284.94 321.818 284.497 321.423 283.932C321.039 283.356 320.805 282.689 320.719 281.932H323.039C323.157 282.497 323.397 282.929 323.759 283.228C324.133 283.516 324.602 283.66 325.167 283.66C325.797 283.66 326.293 283.447 326.655 283.02C327.029 282.583 327.215 282.012 327.215 281.308C327.215 280.636 327.023 280.092 326.639 279.676C326.266 279.249 325.77 279.036 325.151 279.036C324.245 279.036 323.573 279.457 323.135 280.3H320.879L322.191 273.292H328.975V275.356H323.871L323.375 277.98C323.674 277.713 324.021 277.5 324.415 277.34C324.821 277.18 325.231 277.1 325.647 277.1C326.405 277.1 327.077 277.276 327.663 277.628C328.261 277.98 328.719 278.476 329.039 279.116C329.37 279.745 329.535 280.471 329.535 281.292C329.535 282.156 329.349 282.924 328.975 283.596C328.602 284.268 328.079 284.791 327.407 285.164C326.746 285.537 325.978 285.724 325.103 285.724ZM335.418 285.724C332.431 285.724 330.938 283.601 330.938 279.356C330.938 277.191 331.322 275.601 332.09 274.588C332.858 273.575 333.951 273.068 335.37 273.068C338.346 273.068 339.834 275.191 339.834 279.436C339.834 283.628 338.362 285.724 335.418 285.724ZM335.37 283.66C336.063 283.66 336.596 283.34 336.97 282.7C337.343 282.06 337.53 280.961 337.53 279.404C337.53 277.847 337.338 276.748 336.954 276.108C336.57 275.468 336.031 275.148 335.338 275.148C334.644 275.148 334.122 275.468 333.77 276.108C333.418 276.737 333.242 277.831 333.242 279.388C333.242 280.956 333.423 282.06 333.786 282.7C334.148 283.34 334.676 283.66 335.37 283.66ZM342.356 285.676C342.004 285.676 341.695 285.548 341.428 285.292C341.172 285.036 341.044 284.732 341.044 284.38C341.044 284.039 341.172 283.745 341.428 283.5C341.695 283.244 342.004 283.116 342.356 283.116C342.697 283.116 342.991 283.244 343.236 283.5C343.481 283.745 343.604 284.039 343.604 284.38C343.604 284.743 343.481 285.052 343.236 285.308C342.991 285.553 342.697 285.676 342.356 285.676ZM349.34 285.724C346.353 285.724 344.86 283.601 344.86 279.356C344.86 277.191 345.244 275.601 346.012 274.588C346.78 273.575 347.873 273.068 349.292 273.068C352.268 273.068 353.756 275.191 353.756 279.436C353.756 283.628 352.284 285.724 349.34 285.724ZM349.292 283.66C349.985 283.66 350.518 283.34 350.892 282.7C351.265 282.06 351.452 280.961 351.452 279.404C351.452 277.847 351.26 276.748 350.876 276.108C350.492 275.468 349.953 275.148 349.26 275.148C348.566 275.148 348.044 275.468 347.692 276.108C347.34 276.737 347.164 277.831 347.164 279.388C347.164 280.956 347.345 282.06 347.708 282.7C348.07 283.34 348.598 283.66 349.292 283.66ZM359.574 285.724C356.587 285.724 355.094 283.601 355.094 279.356C355.094 277.191 355.478 275.601 356.246 274.588C357.014 273.575 358.107 273.068 359.526 273.068C362.502 273.068 363.99 275.191 363.99 279.436C363.99 283.628 362.518 285.724 359.574 285.724ZM359.526 283.66C360.219 283.66 360.753 283.34 361.126 282.7C361.499 282.06 361.686 280.961 361.686 279.404C361.686 277.847 361.494 276.748 361.11 276.108C360.726 275.468 360.187 275.148 359.494 275.148C358.801 275.148 358.278 275.468 357.926 276.108C357.574 276.737 357.398 277.831 357.398 279.388C357.398 280.956 357.579 282.06 357.942 282.7C358.305 283.34 358.833 283.66 359.526 283.66Z" fill="black"/>
<rect x="30" y="307" width="335" height="8" rx="4" fill="#F4F4F4"/>
<rect x="30.5" y="307.5" width="334" height="7" rx="3.5" stroke="black" stroke-opacity="0.05"/>
<rect x="30" y="307" width="142" height="8" rx="4" fill="black"/>
<rect x="167" y="305" width="12" height="12" rx="6" fill="black"/>
<g opacity="0.2">
<rect x="162" y="300" width="22" height="22" rx="11" fill="black"/>
<rect x="162.5" y="300.5" width="21" height="21" rx="10.5" stroke="black" stroke-opacity="0.1"/>
</g>
<g opacity="0.7">
<rect x="30" y="340" width="229" height="13" rx="6.5" fill="#D0D3DA"/>
</g>
<path d="M108 276C108 271.582 111.582 268 116 268H174C178.418 268 182 271.582 182 276V300H116C111.582 300 108 296.418 108 292V276Z" fill="white"/>
<path d="M116 268.5H174C178.142 268.5 181.5 271.858 181.5 276V299.5H116C111.858 299.5 108.5 296.142 108.5 292V276C108.5 271.858 111.858 268.5 116 268.5Z" stroke="black" stroke-opacity="0.1"/>
<path d="M122.357 288.1C121.564 288.1 120.894 287.92 120.347 287.56C119.807 287.193 119.407 286.717 119.147 286.13C118.887 285.537 118.757 284.89 118.757 284.19C118.757 283.49 118.887 282.843 119.147 282.25C119.414 281.657 119.814 281.18 120.347 280.82C120.887 280.453 121.554 280.27 122.347 280.27C123.174 280.27 123.86 280.47 124.407 280.87C124.96 281.263 125.347 281.797 125.567 282.47H124.537C124.364 282.043 124.087 281.707 123.707 281.46C123.327 281.213 122.867 281.09 122.327 281.09C121.734 281.09 121.237 281.233 120.837 281.52C120.444 281.8 120.15 282.173 119.957 282.64C119.77 283.107 119.677 283.613 119.677 284.16C119.677 284.733 119.777 285.257 119.977 285.73C120.177 286.203 120.477 286.58 120.877 286.86C121.284 287.14 121.774 287.28 122.347 287.28C123.094 287.28 123.687 287.06 124.127 286.62C124.574 286.18 124.797 285.583 124.797 284.83H122.967V284.01H125.697V288H124.857V286.91C124.597 287.297 124.24 287.593 123.787 287.8C123.34 288 122.864 288.1 122.357 288.1ZM128.033 288H127.113V280.37H128.033V283.75H131.853V280.37H132.773V288H131.853V284.57H128.033V288ZM137.589 288.1C136.816 288.1 136.166 287.923 135.639 287.57C135.113 287.21 134.719 286.733 134.459 286.14C134.199 285.547 134.069 284.893 134.069 284.18C134.069 283.467 134.199 282.813 134.459 282.22C134.719 281.627 135.113 281.153 135.639 280.8C136.166 280.447 136.816 280.27 137.589 280.27C138.143 280.27 138.636 280.363 139.069 280.55C139.503 280.737 139.853 280.997 140.119 281.33C140.386 281.663 140.559 282.047 140.639 282.48H139.639C139.546 282.053 139.313 281.717 138.939 281.47C138.573 281.217 138.116 281.09 137.569 281.09C137.016 281.09 136.546 281.223 136.159 281.49C135.773 281.75 135.479 282.113 135.279 282.58C135.086 283.047 134.989 283.58 134.989 284.18C134.989 284.787 135.086 285.323 135.279 285.79C135.479 286.257 135.773 286.623 136.159 286.89C136.546 287.15 137.016 287.28 137.569 287.28C138.129 287.28 138.589 287.147 138.949 286.88C139.316 286.607 139.546 286.21 139.639 285.69H140.639C140.519 286.437 140.189 287.027 139.649 287.46C139.116 287.887 138.429 288.1 137.589 288.1ZM147.013 288.09C146.553 288.09 146.136 287.997 145.763 287.81C145.396 287.617 145.099 287.347 144.873 287C144.646 286.653 144.509 286.257 144.463 285.81H145.393C145.459 286.263 145.646 286.62 145.953 286.88C146.259 287.133 146.636 287.26 147.083 287.26C147.596 287.26 147.999 287.083 148.293 286.73C148.593 286.377 148.743 285.927 148.743 285.38C148.743 284.853 148.589 284.433 148.283 284.12C147.976 283.807 147.569 283.65 147.063 283.65C146.743 283.65 146.446 283.733 146.173 283.9C145.906 284.067 145.699 284.293 145.553 284.58H144.543L145.303 280.37H149.303V281.2H145.993L145.583 283.52C145.816 283.293 146.073 283.12 146.353 283C146.639 282.88 146.936 282.82 147.243 282.82C147.709 282.82 148.126 282.93 148.493 283.15C148.859 283.363 149.146 283.663 149.353 284.05C149.559 284.43 149.663 284.867 149.663 285.36C149.663 285.873 149.549 286.337 149.323 286.75C149.096 287.163 148.779 287.49 148.373 287.73C147.973 287.97 147.519 288.09 147.013 288.09ZM153.479 288.09C152.639 288.09 151.986 287.76 151.519 287.1C151.059 286.44 150.829 285.463 150.829 284.17C150.829 282.883 151.056 281.913 151.509 281.26C151.969 280.6 152.609 280.27 153.429 280.27C154.269 280.27 154.919 280.603 155.379 281.27C155.839 281.93 156.069 282.91 156.069 284.21C156.069 285.49 155.842 286.457 155.389 287.11C154.936 287.763 154.299 288.09 153.479 288.09ZM153.459 287.26C153.992 287.26 154.406 287.007 154.699 286.5C154.999 285.987 155.149 285.22 155.149 284.2C155.149 283.167 154.996 282.393 154.689 281.88C154.382 281.36 153.959 281.1 153.419 281.1C152.886 281.1 152.472 281.357 152.179 281.87C151.892 282.383 151.749 283.153 151.749 284.18C151.749 285.207 151.896 285.977 152.189 286.49C152.489 287.003 152.912 287.26 153.459 287.26ZM157.816 288.1C157.649 288.1 157.506 288.043 157.386 287.93C157.266 287.81 157.206 287.667 157.206 287.5C157.206 287.34 157.266 287.203 157.386 287.09C157.506 286.977 157.649 286.92 157.816 286.92C157.969 286.92 158.102 286.98 158.216 287.1C158.329 287.213 158.386 287.347 158.386 287.5C158.386 287.667 158.329 287.81 158.216 287.93C158.102 288.043 157.969 288.1 157.816 288.1ZM162.18 288.09C161.34 288.09 160.687 287.76 160.22 287.1C159.76 286.44 159.53 285.463 159.53 284.17C159.53 282.883 159.757 281.913 160.21 281.26C160.67 280.6 161.31 280.27 162.13 280.27C162.97 280.27 163.62 280.603 164.08 281.27C164.54 281.93 164.77 282.91 164.77 284.21C164.77 285.49 164.544 286.457 164.09 287.11C163.637 287.763 163 288.09 162.18 288.09ZM162.16 287.26C162.694 287.26 163.107 287.007 163.4 286.5C163.7 285.987 163.85 285.22 163.85 284.2C163.85 283.167 163.697 282.393 163.39 281.88C163.084 281.36 162.66 281.1 162.12 281.1C161.587 281.1 161.174 281.357 160.88 281.87C160.594 282.383 160.45 283.153 160.45 284.18C160.45 285.207 160.597 285.977 160.89 286.49C161.19 287.003 161.614 287.26 162.16 287.26ZM168.577 288.09C167.737 288.09 167.083 287.76 166.617 287.1C166.157 286.44 165.927 285.463 165.927 284.17C165.927 282.883 166.153 281.913 166.607 281.26C167.067 280.6 167.707 280.27 168.527 280.27C169.367 280.27 170.017 280.603 170.477 281.27C170.937 281.93 171.167 282.91 171.167 284.21C171.167 285.49 170.94 286.457 170.487 287.11C170.033 287.763 169.397 288.09 168.577 288.09ZM168.557 287.26C169.09 287.26 169.503 287.007 169.797 286.5C170.097 285.987 170.247 285.22 170.247 284.2C170.247 283.167 170.093 282.393 169.787 281.88C169.48 281.36 169.057 281.1 168.517 281.1C167.983 281.1 167.57 281.357 167.277 281.87C166.99 282.383 166.847 283.153 166.847 284.18C166.847 285.207 166.993 285.977 167.287 286.49C167.587 287.003 168.01 287.26 168.557 287.26Z" fill="black"/>
</svg>
